<?xml version="1.0" encoding="utf-8"?>
<!-- Generator: Adobe Illustrator 16.0.0, SVG Export Plug-In . SVG Version: 6.00 Build 0)  -->
<!DOCTYPE svg PUBLIC "-//W3C//DTD SVG 1.1//EN" "http://www.w3.org/Graphics/SVG/1.1/DTD/svg11.dtd">
<svg version="1.1" id="Capa_1" xmlns="http://www.w3.org/2000/svg" xmlns:xlink="http://www.w3.org/1999/xlink" x="0px" y="0px"
	 width="186.335px" height="974.099px" viewBox="0 0 186.335 974.099" enable-background="new 0 0 186.335 974.099"
	 xml:space="preserve">
<g>
	<rect x="15.883" y="8.278" fill="#ECECEC" fill-opacity="0" width="65.889" height="63.711"/>
	<path fill="#DC007A" d="M28.715,47.721c-0.187-0.137-0.322-0.242-0.465-0.338c-2.359-1.571-4.717-3.146-7.081-4.71
		c-0.446-0.296-0.808-0.646-0.943-1.181c-0.205-0.804,0.063-1.451,0.694-1.953c1.118-0.891,2.246-1.768,3.37-2.647
		c1.556-1.224,3.112-2.443,4.667-3.666c0.076-0.062,0.142-0.133,0.244-0.229c-0.333-0.285-0.644-0.557-0.96-0.821
		c-2.828-2.375-5.655-4.751-8.487-7.121c-0.467-0.393-0.873-0.813-0.92-1.458c-0.058-0.775,0.263-1.361,0.918-1.771
		c1.761-1.101,3.522-2.2,5.284-3.301c3.747-2.338,7.495-4.677,11.244-7.014c0.869-0.542,1.607-0.501,2.398,0.139
		c3.043,2.458,6.083,4.922,9.125,7.383c0.248,0.2,0.508,0.388,0.741,0.604c0.191,0.18,0.339,0.17,0.536,0.009
		c0.951-0.781,1.911-1.553,2.868-2.326c2.351-1.899,4.698-3.804,7.052-5.697c0.755-0.605,1.488-0.648,2.287-0.151
		c5.511,3.436,11.02,6.873,16.527,10.313c0.904,0.565,1.248,1.477,0.846,2.333c-0.146,0.315-0.405,0.604-0.674,0.835
		c-1.299,1.118-2.619,2.213-3.934,3.315c-1.811,1.52-3.619,3.037-5.429,4.558c-0.058,0.049-0.103,0.11-0.192,0.208
		c0.42,0.337,0.826,0.665,1.236,0.988c2.321,1.83,4.646,3.656,6.967,5.488c1.115,0.883,1.057,2.309-0.129,3.103
		c-2.273,1.521-4.549,3.042-6.832,4.552c-0.281,0.188-0.448,0.365-0.32,0.721c0.038,0.106,0.017,0.238,0.017,0.358
		c0,2.573,0.003,5.146-0.003,7.72c-0.001,0.34-0.014,0.684-0.068,1.018c-0.102,0.604-0.474,1.02-0.997,1.316
		c-2.414,1.379-4.825,2.764-7.236,4.146c-3.689,2.115-7.382,4.224-11.061,6.354c-0.818,0.476-1.56,0.466-2.382-0.003
		c-6.101-3.475-12.209-6.935-18.326-10.38c-0.847-0.478-1.25-1.123-1.237-2.103c0.029-2.111,0.014-4.224,0.006-6.333
		C28.062,49.167,27.992,48.351,28.715,47.721z M62.095,33.043c-0.148-0.111-0.229-0.184-0.319-0.24
		c-4.227-2.75-8.456-5.498-12.678-8.258c-0.23-0.148-0.386-0.112-0.59,0.021c-4.215,2.749-8.435,5.493-12.65,8.239
		c-0.094,0.063-0.177,0.14-0.3,0.235c0.146,0.101,0.243,0.167,0.343,0.229c4.198,2.632,8.399,5.261,12.593,7.898
		c0.241,0.15,0.412,0.149,0.651-0.001c3.906-2.457,7.818-4.902,11.729-7.354C61.261,33.572,61.648,33.326,62.095,33.043z
		 M51.94,22.027c0.136,0.098,0.22,0.162,0.309,0.221c4.252,2.771,8.507,5.536,12.753,8.314c0.279,0.184,0.455,0.175,0.708-0.039
		c2.626-2.221,5.262-4.43,7.897-6.641c0.082-0.069,0.195-0.105,0.342-0.185c-0.215-0.152-0.299-0.221-0.391-0.275
		c-4.304-2.688-8.608-5.375-12.91-8.066c-0.199-0.125-0.336-0.125-0.521,0.023c-2.405,1.953-4.816,3.897-7.225,5.849
		C52.591,21.482,52.284,21.742,51.94,22.027z M23.701,23.656c0.171,0.121,0.284,0.189,0.384,0.273
		c0.507,0.421,1.011,0.846,1.516,1.271c2.12,1.78,4.242,3.56,6.355,5.349c0.236,0.199,0.398,0.193,0.653,0.026
		c4.082-2.669,8.171-5.325,12.258-7.984c0.263-0.172,0.523-0.349,0.823-0.548c-0.133-0.123-0.222-0.216-0.321-0.296
		c-2.588-2.094-5.18-4.183-7.76-6.284c-0.255-0.208-0.432-0.229-0.715-0.05c-3.739,2.35-7.487,4.684-11.232,7.021
		C25.048,22.815,24.436,23.198,23.701,23.656z M45.586,43.688c-0.122-0.094-0.2-0.167-0.289-0.223c-4.254-2.666-8.51-5.328-12.76-8
		c-0.223-0.141-0.368-0.139-0.577,0.026c-1.921,1.521-3.851,3.031-5.777,4.546c-0.35,0.273-0.695,0.556-1.071,0.854
		c0.146,0.106,0.238,0.184,0.336,0.249c4.07,2.713,8.143,5.422,12.205,8.145c0.271,0.181,0.441,0.159,0.688-0.029
		c1.877-1.451,3.765-2.893,5.647-4.334C44.51,44.521,45.029,44.119,45.586,43.688z M72.462,40.901
		c-0.112-0.104-0.192-0.19-0.284-0.264c-2.164-1.709-4.331-3.414-6.492-5.127c-0.208-0.165-0.365-0.192-0.604-0.042
		c-4.23,2.66-8.467,5.313-12.701,7.97c-0.105,0.064-0.198,0.148-0.322,0.245c0.137,0.118,0.232,0.208,0.335,0.287
		c2.3,1.768,4.604,3.528,6.897,5.306c0.219,0.169,0.364,0.188,0.6,0.03c4.08-2.729,8.167-5.449,12.251-8.173
		C72.24,41.069,72.332,40.996,72.462,40.901z M50.551,47.207c0,5.688,0,11.313,0,17.001c0.171-0.085,0.289-0.138,0.398-0.199
		c1.204-0.686,2.406-1.368,3.61-2.055c3.581-2.037,7.161-4.076,10.748-6.104c0.276-0.157,0.375-0.33,0.372-0.646
		c-0.016-1.639-0.007-3.274-0.008-4.915c-0.001-0.123-0.016-0.245-0.027-0.422c-0.178,0.107-0.301,0.177-0.417,0.255
		c-1.508,1.006-3.015,2.017-4.523,3.021c-0.912,0.604-1.633,0.561-2.502-0.109c-2.443-1.887-4.896-3.765-7.345-5.645
		C50.777,47.327,50.682,47.284,50.551,47.207z M46.842,47.372c-0.136,0.087-0.229,0.139-0.312,0.199
		c-2.393,1.826-4.787,3.653-7.177,5.483c-0.864,0.661-1.564,0.688-2.472,0.083c-1.582-1.057-3.164-2.11-4.747-3.163
		c-0.111-0.073-0.235-0.125-0.402-0.212c-0.011,0.185-0.024,0.303-0.024,0.421c-0.001,1.682,0.006,3.362-0.007,5.046
		c-0.002,0.294,0.104,0.451,0.357,0.592c4.803,2.688,9.601,5.384,14.4,8.076c0.11,0.063,0.228,0.106,0.383,0.182
		C46.842,58.493,46.842,52.965,46.842,47.372z"/>
</g>
<g>
	<rect x="15.883" y="81.274" fill="#ECECEC" fill-opacity="0" width="65.889" height="63.711"/>
	<g>
		<path fill="#DC007A" d="M37.608,99.928c6.553,0,13.106,0,19.66,0c6.583,0,13.166,0,19.749,0c0.905,0,1.785-0.688,1.811-1.834
			c0.021-0.986-0.833-1.806-1.809-1.807c-13.157-0.001-26.313-0.001-39.47,0.004c-0.203,0-0.417,0.041-0.607,0.111
			c-0.833,0.312-1.337,1.188-1.174,2.016C35.947,99.319,36.687,99.928,37.608,99.928z"/>
		<path fill="#DC007A" d="M76.901,111.304c-2.412,0-4.825,0-7.238,0c-10.674,0-21.348-0.001-32.021,0.004
			c-0.233,0-0.479,0.033-0.696,0.112c-0.824,0.301-1.324,1.158-1.183,1.982c0.155,0.902,0.916,1.541,1.844,1.541
			c6.543,0,13.086,0,19.63,0c4.915,0,9.83,0,14.745,0c1.688,0,3.376,0.011,5.063-0.004c0.979-0.009,1.813-0.797,1.772-1.888
			C78.776,112.002,77.966,111.304,76.901,111.304z"/>
		<path fill="#DC007A" d="M76.962,126.322c-2.115-0.001-4.23,0-6.345,0c-10.992,0-21.983-0.001-32.976,0.005
			c-0.233,0-0.479,0.032-0.697,0.11c-0.835,0.306-1.337,1.184-1.178,2.014c0.173,0.897,0.915,1.512,1.836,1.512
			c6.554,0,13.107,0,19.66,0c4.717,0,9.434,0,14.148,0c1.877,0,3.754,0.006,5.631-0.003c0.893-0.004,1.764-0.694,1.782-1.829
			C78.845,127.112,77.991,126.323,76.962,126.322z"/>
		<path fill="#DC007A" d="M24.666,94.434c-0.282-0.044-0.571-0.053-0.857-0.05c-1.12,0.01-2.241-0.003-3.358,0.061
			c-0.836,0.048-1.463,0.709-1.564,1.539c-0.037,0.304-0.055,0.61-0.052,0.917c0.011,1.119,0,2.24,0.063,3.357
			c0.043,0.781,0.738,1.458,1.523,1.51c0.709,0.048,1.425,0.011,2.137,0.011c0,0.02,0,0.036,0,0.055
			c0.585,0,1.171,0.006,1.756-0.001c1.127-0.013,1.947-0.802,1.964-1.922c0.018-1.201,0.016-2.401,0-3.604
			C26.264,95.309,25.636,94.59,24.666,94.434z"/>
		<path fill="#DC007A" d="M24.666,109.452c-0.282-0.044-0.572-0.054-0.857-0.051c-1.12,0.011-2.241-0.003-3.358,0.061
			c-0.837,0.048-1.464,0.709-1.564,1.538c-0.037,0.304-0.055,0.61-0.052,0.917c0.011,1.12,0,2.241,0.063,3.357
			c0.043,0.781,0.738,1.458,1.523,1.511c0.719,0.048,1.444,0.01,2.167,0.01c0,0.019,0,0.036,0,0.055
			c0.576,0,1.151,0.005,1.727-0.001c1.127-0.013,1.947-0.8,1.964-1.921c0.02-1.201,0.016-2.401,0-3.604
			C26.264,110.328,25.636,109.604,24.666,109.452z"/>
		<path fill="#DC007A" d="M24.323,124.419c-1.161-0.01-2.323-0.013-3.482,0c-1.219,0.014-2.002,0.813-2.009,2.032
			c-0.005,1.131-0.006,2.263,0,3.395c0.008,1.205,0.785,2.001,1.99,2.02c1.171,0.019,2.342,0.013,3.513,0.002
			c1.011-0.012,1.771-0.629,1.885-1.622c0.078-0.686,0.015-1.385,0.015-2.077c0.016,0,0.031,0,0.047,0
			c0-0.596,0.006-1.19-0.001-1.785C26.266,125.243,25.459,124.428,24.323,124.419z"/>
	</g>
</g>
<g>
	<rect x="15.883" y="154.27" fill="#ECECEC" fill-opacity="0" width="65.889" height="63.711"/>
	<path fill="#DC007A" d="M48.828,166.463c8.143,0,16.283-0.009,24.425,0.006c2.796,0.005,5.03,2.05,5.461,4.602
		c0.065,0.396,0.106,0.801,0.106,1.2c0.007,9.276,0.006,18.557,0.005,27.832c0,2.686-1.745,4.909-4.353,5.533
		c-0.389,0.093-0.795,0.148-1.195,0.148c-16.301,0.007-32.604,0.015-48.906-0.001c-2.732-0.003-5.048-1.991-5.479-4.794
		c-0.051-0.33-0.063-0.67-0.063-1.005c-0.003-9.249-0.003-18.497-0.002-27.745c0-1.689,0.581-3.143,1.83-4.297
		c0.879-0.813,1.92-1.3,3.117-1.422c0.381-0.039,0.766-0.056,1.149-0.056C32.892,166.463,40.859,166.463,48.828,166.463z
		 M48.814,202.141c8.045,0,16.089,0.001,24.134-0.004c0.267,0,0.541-0.024,0.796-0.095c0.927-0.25,1.434-0.994,1.434-2.107
		c0.004-5.438,0-10.873,0.008-16.312c0-0.275-0.084-0.362-0.363-0.36c-1.674,0.012-3.349,0.006-5.021,0.006
		c-15.638,0-31.274,0-46.912,0c-0.407,0-0.411,0-0.411,0.358c-0.001,5.447-0.003,10.895,0.003,16.341
		c0,0.421,0.055,0.845,0.288,1.218c0.436,0.699,1.094,0.956,1.884,0.956C32.706,202.141,40.76,202.141,48.814,202.141z
		 M48.832,175.868c8.632,0,17.263,0,25.894,0c0.453,0,0.453,0,0.453-0.442c0-1.021,0.006-2.04-0.004-3.062
		c-0.003-0.268-0.023-0.541-0.089-0.797c-0.233-0.917-0.998-1.457-2.032-1.457c-16.155,0-32.312,0-48.466,0.003
		c-0.228,0-0.461,0.032-0.681,0.092c-0.883,0.235-1.406,0.95-1.426,1.998c-0.022,1.125-0.002,2.251-0.007,3.377
		c-0.001,0.211,0.085,0.302,0.293,0.288c0.105-0.008,0.211-0.001,0.317-0.001C31.667,175.868,40.25,175.868,48.832,175.868z"/>
</g>
<g>
	<rect x="15.883" y="227.266" fill="#ECECEC" fill-opacity="0" width="65.889" height="63.711"/>
	<g>
		<path fill="#DC007A" d="M47.27,237.795c-0.247,0.391-0.465,0.739-0.687,1.085c-0.876,1.359-1.747,2.724-2.633,4.078
			c-0.248,0.377-0.354,0.778-0.293,1.218c0.027,0.187,0.077,0.407,0.196,0.539c0.838,0.929,2.041,1.138,2.797-0.065
			c1.937-3.083,3.919-6.136,5.872-9.208c0.622-0.979,0.451-1.656-0.575-2.191c-2.469-1.289-4.95-2.549-7.428-3.818
			c-0.74-0.379-1.492-0.739-2.219-1.143c-0.875-0.483-1.857-0.021-2.135,0.816c-0.328,0.986-0.13,1.603,0.808,2.076
			c1.669,0.845,3.339,1.69,5.008,2.538c0.109,0.058,0.214,0.123,0.32,0.183c-0.002,0.033-0.005,0.063-0.007,0.098
			c-0.34,0.052-0.68,0.106-1.021,0.148c-4.692,0.579-8.969,2.245-12.794,5.011c-5.524,3.993-9.175,9.302-10.922,15.9
			c-0.452,1.708-0.75,3.444-0.81,5.216c-0.033,1.016-0.102,2.034-0.051,3.046c0.165,3.288,0.829,6.477,2.142,9.503
			c3.318,7.646,8.898,12.905,16.736,15.757c1.896,0.688,3.853,1.127,5.85,1.359c1.144,0.135,2.301,0.227,3.45,0.211
			c5.374-0.071,10.37-1.479,14.92-4.365c4.449-2.821,7.863-6.594,10.228-11.3c1.311-2.606,2.177-5.359,2.61-8.25
			c0.251-1.67,0.392-3.349,0.328-5.033c-0.146-3.75-0.934-7.357-2.489-10.788c-1.57-3.458-3.767-6.46-6.552-9.03
			c-0.695-0.645-1.437-1.236-2.184-1.818c-0.604-0.47-1.285-0.549-1.986-0.203c-0.69,0.34-1.031,0.936-1.048,1.672
			c-0.017,0.647,0.313,1.151,0.813,1.573c0.961,0.813,1.945,1.609,2.824,2.506c3.349,3.416,5.468,7.494,6.392,12.189
			c0.272,1.383,0.396,2.777,0.429,4.191c0.122,5.061-1.202,9.711-4.013,13.9c-3.724,5.552-8.886,9.039-15.428,10.467
			c-2.114,0.461-4.258,0.596-6.404,0.46c-4.948-0.31-9.424-1.958-13.344-5.009c-4.792-3.729-7.825-8.575-9.051-14.535
			c-0.388-1.884-0.557-3.792-0.465-5.71c0.196-4.157,1.334-8.041,3.5-11.607c2.149-3.537,5.006-6.362,8.574-8.46
			c2.657-1.562,5.509-2.586,8.564-3.023c0.615-0.089,1.234-0.142,1.854-0.205C47.032,237.762,47.12,237.784,47.27,237.795z"/>
		<g>
			<circle fill="#DC007A" cx="52.973" cy="255.068" r="5.596"/>
			<g>
				<circle fill="#DC007A" cx="39.736" cy="263.605" r="5.595"/>
				<circle fill="#DC007A" cx="55.257" cy="270.652" r="5.595"/>
			</g>
		</g>
	</g>
</g>
<g>
	<rect x="15.883" y="373.259" fill="#ECECEC" fill-opacity="0" width="65.889" height="63.711"/>
	<g>
		<path fill="#DC007A" d="M20.104,392.781c0.119,0.07,0.242,0.138,0.364,0.203c1.79,0.976,3.58,1.947,5.369,2.923
			c7.291,3.972,14.585,7.938,21.869,11.921c0.779,0.426,1.48,0.432,2.258,0.01c6.395-3.462,12.798-6.907,19.199-10.355
			c2.844-1.531,5.688-3.063,8.534-4.593c0.697-0.375,1.146-0.922,1.129-1.73c-0.017-0.81-0.479-1.335-1.188-1.692
			c-2.834-1.431-5.659-2.871-8.488-4.31c-3.581-1.818-7.163-3.641-10.745-5.457c-2.777-1.41-5.553-2.822-8.335-4.225
			c-0.282-0.142-0.602-0.207-0.945-0.321c-0.328,0.112-0.667,0.19-0.97,0.344c-2.868,1.434-5.729,2.88-8.593,4.318
			c-5.288,2.655-10.576,5.312-15.864,7.968c-1.181,0.593-2.373,1.163-3.537,1.785C18.822,390.28,18.805,392.003,20.104,392.781z
			 M25.341,391.018c7.582-3.809,15.165-7.614,22.747-11.422c0.042-0.021,0.089-0.034,0.124-0.063
			c0.617-0.515,1.184-0.364,1.856-0.017c3.44,1.791,6.907,3.528,10.365,5.286c4.076,2.069,8.152,4.142,12.229,6.212
			c0.102,0.053,0.198,0.112,0.355,0.203c-0.134,0.094-0.224,0.172-0.325,0.229c-5.482,2.955-10.966,5.909-16.448,8.862
			c-2.344,1.266-4.689,2.521-7.028,3.794c-0.26,0.143-0.461,0.155-0.731,0.008c-4.56-2.494-9.125-4.979-13.69-7.468
			c-3.172-1.729-6.345-3.453-9.517-5.183c-0.097-0.053-0.187-0.117-0.349-0.222C25.121,391.138,25.229,391.075,25.341,391.018z"/>
		<path fill="#DC007A" d="M19.877,406.635c3.814,2.073,7.625,4.151,11.438,6.229c5.349,2.912,10.701,5.815,16.041,8.744
			c0.79,0.435,1.501,0.448,2.291,0.021c5.477-2.968,10.963-5.918,16.445-8.872c3.751-2.021,7.5-4.045,11.254-6.062
			c0.709-0.38,1.161-0.907,1.146-1.752c-0.017-0.813-0.464-1.322-1.155-1.674c-1.695-0.854-3.391-1.713-5.079-2.577
			c-0.207-0.105-0.374-0.113-0.58,0.003c-0.553,0.314-1.118,0.608-1.678,0.913c-0.627,0.339-1.253,0.68-1.919,1.039
			c1.562,0.797,3.075,1.565,4.663,2.375c-0.2,0.119-0.296,0.182-0.396,0.232c-4.504,2.43-9.009,4.856-13.514,7.284
			c-3.322,1.791-6.646,3.577-9.966,5.375c-0.255,0.139-0.455,0.142-0.701-0.009c-0.416-0.25-0.85-0.473-1.277-0.703
			c-7.3-3.979-14.601-7.952-21.9-11.93c-0.105-0.06-0.207-0.128-0.393-0.243c1.682-0.848,3.288-1.655,4.953-2.494
			c-0.146-0.088-0.225-0.14-0.304-0.184c-1.087-0.593-2.18-1.179-3.26-1.782c-0.221-0.124-0.389-0.118-0.607-0.009
			c-1.807,0.918-3.617,1.831-5.432,2.732c-0.684,0.341-1.092,0.874-1.117,1.629C18.804,405.7,19.195,406.264,19.877,406.635z"/>
		<path fill="#DC007A" d="M77.458,416.486c-1.638-0.816-3.278-1.626-4.928-2.419c-0.146-0.069-0.393-0.062-0.539,0.017
			c-0.917,0.472-1.819,0.971-2.726,1.46c-0.276,0.148-0.552,0.304-0.881,0.483c1.474,0.724,2.877,1.41,4.356,2.14
			c-0.224,0.133-0.348,0.211-0.477,0.279c-5.097,2.747-10.194,5.491-15.291,8.237c-2.722,1.467-5.445,2.93-8.164,4.398
			c-0.21,0.114-0.372,0.118-0.576,0c-0.439-0.256-0.893-0.49-1.34-0.733c-7.19-3.914-14.381-7.828-21.57-11.741
			c-0.219-0.119-0.431-0.249-0.739-0.428c1.578-0.719,3.065-1.395,4.603-2.094c-0.074-0.047-0.101-0.066-0.131-0.083
			c-1.188-0.65-2.375-1.307-3.57-1.942c-0.098-0.054-0.271-0.03-0.382,0.021c-1.728,0.786-3.452,1.582-5.176,2.376
			c-0.686,0.313-1.069,0.864-1.099,1.603c-0.032,0.758,0.336,1.332,1.006,1.695c4.077,2.224,8.154,4.442,12.232,6.665
			c5.084,2.771,10.174,5.528,15.248,8.316c0.841,0.461,1.583,0.443,2.419-0.009c7.545-4.086,15.102-8.149,22.654-12.222
			c1.711-0.924,3.426-1.842,5.133-2.771c0.668-0.364,1.006-0.941,0.967-1.715C78.452,417.305,78.083,416.799,77.458,416.486z"/>
	</g>
</g>
<g>
	<rect x="15.883" y="446.254" fill="#ECECEC" fill-opacity="0" width="65.889" height="63.712"/>
	<g>
		<path fill="#DC007A" d="M78.823,468.375c-0.001-0.522-0.017-1.05-0.062-1.569c-0.117-1.322-0.775-2.326-1.865-3.063
			c-0.76-0.512-1.623-0.676-2.515-0.682c-2.134-0.015-4.269-0.004-6.401-0.004c-0.129,0-0.258,0-0.418,0c0-0.209,0-0.363,0-0.519
			c0-4.638,0-9.272,0-13.908c0-0.459,0-0.459-0.458-0.459c-12.188,0-24.377,0-36.565,0c-0.451,0-0.451,0-0.451,0.468
			c0,4.635,0,9.271,0,13.907c0,0.153,0,0.308,0,0.511c-0.193,0-0.326,0-0.458,0c-2.111,0-4.223-0.006-6.334,0.004
			c-0.365,0.002-0.738,0.028-1.094,0.106c-2.054,0.446-3.375,2.103-3.375,4.202c0,8.257-0.001,16.513,0.002,24.77
			c0,0.321,0.022,0.646,0.058,0.965c0.239,2.135,1.967,3.676,4.111,3.676c2.212,0.002,4.424,0,6.636,0.002
			c0.453,0,0.454,0,0.454,0.459c0,3.451,0,6.902,0,10.355c0,0.444,0,0.444,0.438,0.444c12.199,0,24.399,0,36.598,0
			c0.438,0,0.438,0,0.438-0.444c0-3.463,0.005-6.927-0.008-10.392c-0.001-0.337,0.086-0.437,0.429-0.435
			c2.256,0.016,4.513,0.019,6.771-0.002c0.405-0.004,0.828-0.07,1.213-0.201c1.725-0.584,2.854-2.063,2.854-4.1
			C78.83,484.439,78.826,476.406,78.823,468.375z M33.777,462.632c0-3.484,0-6.97,0-10.453c0-0.441,0.001-0.441,0.438-0.441
			c9.739-0.002,19.479-0.002,29.218,0c0.438,0,0.439,0,0.439,0.439c0,3.482,0,6.969,0,10.454c0,0.121,0,0.242,0,0.396
			c-10.031,0-20.04,0-30.096,0C33.777,462.875,33.777,462.754,33.777,462.632z M63.873,503.982c0,0.434-0.001,0.438-0.446,0.438
			c-9.73,0-19.462,0-29.193,0c-0.456,0-0.457-0.004-0.457-0.457c0-6.625,0-13.25,0-19.875c0-0.443,0-0.443,0.463-0.443
			c4.86,0,9.72,0,14.58,0c4.871,0,9.742,0,14.613,0c0.438,0,0.439,0.002,0.439,0.434C63.873,490.711,63.873,497.347,63.873,503.982z
			 M75.135,492.437c0,0.611-0.104,0.719-0.72,0.719c-2.134,0-4.27,0-6.402,0c-0.449,0-0.45-0.002-0.45-0.465
			c0-4.076,0-8.154,0-12.23c0-0.447,0-0.447-0.437-0.447c-12.2,0-24.4,0-36.6,0c-0.438,0-0.438,0-0.438,0.447
			c0,4.076,0,8.152,0,12.23c0,0.463,0,0.465-0.45,0.465c-2.146,0-4.29,0-6.435,0c-0.57,0-0.688-0.119-0.688-0.684
			c0-8.357,0-16.715,0-25.07c0-0.559,0.098-0.652,0.669-0.652c8.547,0,17.094,0,25.641,0c8.513,0,17.026,0,25.54,0
			c0.726,0,0.771,0.049,0.771,0.785C75.135,475.836,75.135,484.136,75.135,492.437z"/>
		<path fill="#DC007A" d="M67.633,470.634c-0.658-0.007-1.316-0.009-1.976,0c-0.957,0.012-1.801,0.881-1.782,1.823
			c0.02,0.972,0.843,1.793,1.805,1.802c0.323,0.002,0.646,0,0.971,0c0.323,0,0.646,0.002,0.97,0c0.98-0.007,1.832-0.863,1.815-1.822
			C69.419,471.466,68.6,470.642,67.633,470.634z"/>
	</g>
</g>
<g>
	<rect x="15.883" y="519.25" fill="#ECECEC" fill-opacity="0" width="65.889" height="63.711"/>
	<g>
		<path fill="#DC007A" d="M63.838,577.939c0-0.503,0-0.503-0.521-0.503c-8.855,0-17.713,0-26.568,0
			c-4.603,0-9.204-0.004-13.808,0.008c-0.33,0.001-0.437-0.08-0.43-0.423c0.021-1.123,0.029-2.248,0.002-3.372
			c-0.023-1.056,0.455-1.764,1.382-2.201c2.785-1.315,5.57-2.631,8.355-3.946c2.815-1.329,5.641-2.646,8.443-4
			c1.327-0.644,2.002-1.782,2.052-3.23c0.038-1.129-0.438-2.08-1.279-2.854c-0.588-0.539-1.178-1.09-1.686-1.699
			c-1.201-1.451-2.032-3.119-2.689-4.875c-0.868-2.313-1.435-4.695-1.475-7.168c-0.052-3.104-0.021-6.213-0.003-9.319
			c0.003-0.467,0.09-0.946,0.224-1.396c0.357-1.203,1.089-2.193,1.931-3.102c1.479-1.593,3.238-2.799,5.206-3.699
			c2.449-1.123,5-1.681,7.695-1.23c3.869,0.644,7.113,2.438,9.672,5.415c1.039,1.209,1.72,2.578,1.693,4.253
			c-0.043,2.854-0.002,5.703-0.019,8.556c-0.005,0.843-0.05,1.688-0.138,2.525c-0.251,2.388-0.873,4.68-1.866,6.866
			c-0.849,1.865-1.964,3.539-3.581,4.845c-0.866,0.699-1.343,1.634-1.354,2.745c-0.021,1.566,0.696,2.742,2.104,3.438
			c1.743,0.861,3.51,1.68,5.268,2.514c0.101,0.05,0.207,0.08,0.348,0.134c0.301-1.224,0.593-2.406,0.887-3.603
			c-1.674-0.785-3.309-1.556-5.004-2.352c0.151-0.137,0.238-0.208,0.317-0.288c0.604-0.604,1.251-1.178,1.801-1.83
			c1.574-1.865,2.641-4.021,3.421-6.317c0.852-2.513,1.403-5.084,1.426-7.742c0.029-3.385,0.011-6.771,0.003-10.154
			c-0.001-0.346-0.039-0.692-0.104-1.031c-0.399-2.053-1.453-3.765-2.814-5.305c-1.632-1.848-3.583-3.279-5.771-4.396
			c-2.167-1.104-4.455-1.828-6.882-2.016c-2.047-0.155-4.067,0.063-6.036,0.682c-3.96,1.241-7.328,3.373-9.882,6.688
			c-1.464,1.897-2.259,4.021-2.194,6.47c0.07,2.814,0.006,5.635,0.021,8.45c0.005,0.796,0.046,1.599,0.146,2.388
			c0.283,2.244,0.827,4.432,1.652,6.539c1.138,2.907,2.685,5.543,5.097,7.598c0.066,0.059,0.122,0.133,0.212,0.23
			c-0.131,0.075-0.233,0.146-0.344,0.196c-1.361,0.644-2.725,1.28-4.085,1.925c-4.063,1.917-8.127,3.831-12.188,5.755
			c-0.936,0.442-1.807,0.992-2.564,1.706c-0.64,0.602-1.077,1.3-1.078,2.211c-0.001,1.717-0.014,3.434,0.005,5.146
			c0.011,1.104,0.335,2.1,1.16,2.883c0.801,0.76,1.761,1.031,2.855,1.029c13.493-0.013,26.986-0.008,40.48-0.008
			c0.058,0,0.116-0.007,0.174,0.001c0.265,0.029,0.337-0.097,0.334-0.347C63.833,579.793,63.838,578.865,63.838,577.939z"/>
		<path fill="#DC007A" d="M78.815,571.633c-0.131-1.047-0.867-1.703-1.93-1.706c-1.703-0.005-3.408-0.001-5.111-0.001
			c-0.133,0-0.266,0-0.424,0c0-0.2,0-0.338,0-0.478c0-1.528,0.003-3.061-0.004-4.59c-0.001-0.313-0.024-0.624-0.067-0.934
			c-0.132-0.943-1.141-1.656-2.06-1.468c-0.97,0.201-1.555,0.92-1.559,1.93c-0.004,1.704-0.001,3.408-0.001,5.109
			c0,0.136,0,0.269,0,0.427c-0.2,0-0.339,0-0.477,0c-1.704,0-3.408-0.007-5.11,0.002c-1.03,0.005-1.791,0.706-1.92,1.739
			c-0.091,0.734,0.53,1.611,1.328,1.826c0.297,0.081,0.615,0.112,0.926,0.114c1.601,0.011,3.198,0.005,4.799,0.005
			c0.136,0,0.271,0,0.454,0c0,0.204,0,0.344,0,0.479c0,1.646-0.005,3.292,0.004,4.938c0.001,0.241,0.029,0.486,0.088,0.72
			c0.168,0.674,0.799,1.235,1.434,1.309c0.855,0.097,1.564-0.215,1.893-0.923c0.164-0.354,0.254-0.774,0.261-1.169
			c0.026-1.635,0.012-3.27,0.012-4.9c0-0.137,0-0.271,0-0.451c0.178,0,0.313,0,0.449,0c1.402,0,2.804,0.006,4.206-0.003
			c0.428-0.002,0.854-0.024,1.28-0.063C78.188,573.461,78.927,572.526,78.815,571.633z"/>
	</g>
</g>
<g>
	<rect x="15.883" y="592.246" fill="#ECECEC" fill-opacity="0" width="65.889" height="63.711"/>
	<g>
		<path fill="#DC007A" d="M64.823,644.607c-0.711-0.689-1.589-1.104-2.44-1.57c-3.745-2.055-7.479-4.131-11.214-6.197
			c-0.157-0.09-0.307-0.191-0.499-0.313c0.125-0.117,0.219-0.196,0.304-0.287c0.558-0.586,1.177-1.127,1.659-1.77
			c2.396-3.194,3.373-6.901,3.564-10.804c0.15-3.053,0.036-6.114,0.037-9.175c0-0.229,0.009-0.466-0.024-0.691
			c-0.252-1.761-1.056-3.27-2.174-4.618c-1.633-1.977-3.66-3.428-6.004-4.438c-2.574-1.105-5.25-1.55-8.025-1.021
			c-3.677,0.7-6.793,2.438-9.298,5.229c-1.671,1.859-2.594,4.006-2.509,6.564c0.068,2.048,0.001,4.102,0.021,6.15
			c0.007,0.816,0.062,1.64,0.129,2.455c0.152,1.828,0.582,3.603,1.191,5.326c0.782,2.217,1.856,4.266,3.492,5.982
			c0.341,0.359,0.652,0.746,0.994,1.141c-0.017,0.014-0.1,0.071-0.19,0.12c-3.306,1.794-6.615,3.581-9.917,5.384
			c-1.208,0.659-2.42,1.315-3.585,2.045c-0.789,0.492-1.467,1.176-1.486,2.184c-0.031,1.677-0.033,3.355,0.062,5.031
			c0.088,1.56,1.458,2.764,3.001,2.765c13.565,0.003,27.13,0.002,40.695-0.001c0.681,0,1.292-0.229,1.831-0.646
			c0.862-0.666,1.228-1.574,1.24-2.636c0.018-1.399-0.004-2.803,0.008-4.204C65.689,645.814,65.394,645.162,64.823,644.607z
			 M61.545,650.489c-4.61-0.01-9.221-0.007-13.831-0.007c-1.819,0-3.639,0-5.456,0c-6.406,0-12.813,0.001-19.218,0
			c-0.525,0-0.525,0-0.525-0.525c0-0.867,0.01-1.735-0.006-2.604c-0.005-0.271,0.087-0.427,0.317-0.551
			c1.568-0.849,3.132-1.699,4.699-2.552c2.767-1.502,5.538-2.994,8.3-4.506c1.252-0.685,1.917-1.783,1.956-3.187
			c0.03-1.091-0.373-2.087-1.235-2.8c-1.778-1.472-2.836-3.396-3.583-5.521c-0.714-2.029-1.106-4.118-1.072-6.286
			c0.037-2.374,0.026-4.75-0.001-7.124c-0.01-0.822,0.219-1.55,0.642-2.229c1.081-1.74,2.623-2.979,4.386-3.959
			c1.389-0.774,2.873-1.297,4.458-1.438c1.704-0.147,3.365,0.089,4.958,0.745c2.077,0.855,3.851,2.112,5.206,3.92
			c0.703,0.939,1.107,1.964,1.084,3.184c-0.048,2.522,0.006,5.052-0.02,7.574c-0.027,2.7-0.545,5.308-1.697,7.763
			c-0.58,1.234-1.366,2.325-2.432,3.214c-2.152,1.791-1.862,4.853,0.579,6.212c3.894,2.167,7.793,4.323,11.691,6.479
			c0.323,0.183,0.656,0.344,0.987,0.508c0.201,0.101,0.269,0.246,0.266,0.475c-0.012,0.927-0.023,1.854,0.004,2.78
			C62.014,650.422,61.88,650.49,61.545,650.489z"/>
		<path fill="#DC007A" d="M78.825,637.41c0.026-1.045-0.382-1.861-1.21-2.437c-0.748-0.521-1.551-0.964-2.35-1.402
			c-3.743-2.055-7.494-4.096-11.242-6.143c-0.125-0.068-0.24-0.154-0.377-0.243c0.068-0.081,0.1-0.13,0.142-0.165
			c1.676-1.392,2.858-3.144,3.726-5.12c1.127-2.566,1.777-5.257,1.839-8.059c0.061-2.756-0.014-5.518,0.03-8.271
			c0.026-1.648-0.454-3.126-1.336-4.479c-1.735-2.667-4.166-4.502-7.057-5.751c-2.471-1.066-5.047-1.518-7.724-1.069
			c-3.506,0.583-6.518,2.163-9.063,4.637c-0.22,0.215-0.422,0.446-0.692,0.734c0.648,0.04,1.18,0.051,1.705,0.111
			c0.835,0.097,1.67,0.205,2.498,0.353c0.276,0.05,0.472,0.021,0.701-0.141c2.416-1.72,5.108-2.45,8.057-2.146
			c1.534,0.158,2.97,0.682,4.318,1.433c1.516,0.843,2.842,1.91,3.886,3.307c0.703,0.939,1.114,1.961,1.085,3.182
			c-0.053,2.198-0.029,4.4-0.01,6.604c0.012,1.393-0.071,2.771-0.351,4.136c-0.631,3.086-1.691,5.937-4.228,8.028
			c-0.862,0.711-1.232,1.726-1.178,2.818c0.068,1.373,0.737,2.443,1.962,3.115c3.003,1.647,6.012,3.285,9.021,4.924
			c1.199,0.65,2.4,1.304,3.613,1.927c0.396,0.204,0.575,0.44,0.551,0.909c-0.043,0.811-0.012,1.621-0.013,2.434
			c0,0.461-0.001,0.463-0.458,0.464c-2.166,0.001-4.332,0-6.498,0c-0.124,0-0.248,0-0.399,0c0.213,0.257,0.416,0.476,0.59,0.714
			c0.557,0.766,0.801,1.661,1.038,2.557c0.073,0.275,0.196,0.364,0.479,0.362c1.912-0.012,3.823,0.009,5.734-0.018
			c0.417-0.007,0.858-0.097,1.243-0.259c1.334-0.562,1.928-1.641,1.953-3.043C78.835,640.074,78.79,638.741,78.825,637.41z"/>
	</g>
</g>
<g>
	<rect x="15.883" y="738.238" fill="#ECECEC" fill-opacity="0" width="65.889" height="63.711"/>
	<g>
		<path fill="#DC007A" d="M78.824,748.752c0-0.285-0.021-0.574-0.066-0.856c-0.296-1.767-1.873-3.093-3.665-3.093
			c-8.757-0.002-17.516-0.002-26.272-0.002c-8.748,0-17.495,0-26.242,0.008c-0.352,0-0.714,0.057-1.052,0.152
			c-1.542,0.447-2.698,1.805-2.698,3.774c0,14.029-0.001,28.062,0.002,42.089c0,0.396,0.025,0.792,0.05,1.188
			c0.113,1.784,1.679,3.373,3.667,3.373c17.515,0.004,35.029,0.003,52.544-0.001c0.265,0,0.534-0.034,0.793-0.094
			c1.613-0.356,2.942-1.729,2.942-3.854C78.827,777.209,78.828,762.979,78.824,748.752z M22.964,748.445c9.174,0,18.349,0,27.521,0
			c8.013,0,16.025,0,24.039,0c0.068,0,0.139-0.001,0.207,0c0.396,0.002,0.397,0.003,0.397,0.395c0,11.229,0,22.457,0,33.688
			c0,0.105,0,0.213,0,0.318c-0.037,0.02-0.075,0.037-0.112,0.057c-0.142-0.163-0.274-0.333-0.426-0.486
			c-2.464-2.521-4.931-5.037-7.396-7.557c-1.014-1.036-2.018-2.081-3.036-3.111c-0.84-0.854-1.795-0.9-2.697-0.121
			c-2.229,1.932-4.45,3.867-6.667,5.813c-0.192,0.168-0.306,0.177-0.488-0.007c-1.01-1.015-2.032-2.013-3.048-3.019
			c-3.541-3.508-7.081-7.017-10.622-10.521c-0.6-0.596-1.2-1.188-1.8-1.779c-0.703-0.691-1.838-0.709-2.554-0.016
			c-1.726,1.671-3.442,3.351-5.164,5.023c-2.782,2.707-5.563,5.413-8.346,8.119c-0.055,0.055-0.12,0.096-0.229,0.182
			c-0.01-0.15-0.022-0.254-0.022-0.354c-0.001-8.747-0.001-17.494-0.001-26.242C22.523,748.446,22.524,748.445,22.964,748.445z
			 M74.861,791.741c-0.107-0.007-0.217,0-0.326,0c-8.569,0-17.14,0-25.708,0c-8.579,0-17.159,0-25.737,0
			c-0.089,0-0.18-0.007-0.269,0.001c-0.234,0.021-0.303-0.083-0.302-0.313c0.006-3.534,0.001-7.068,0.014-10.604
			c0-0.149,0.105-0.338,0.219-0.448c1.831-1.791,3.67-3.571,5.509-5.354c1.703-1.651,3.407-3.304,5.11-4.954
			c1.34-1.3,2.681-2.599,4.016-3.9c0.16-0.156,0.288-0.198,0.435-0.002c0.023,0.03,0.056,0.058,0.083,0.086
			c5.066,5.06,10.144,10.104,15.187,15.188c0.909,0.916,2.041,0.633,2.686,0.053c2.081-1.871,4.154-3.753,6.228-5.634
			c0.593-0.538,0.581-0.537,1.143,0.041c1.569,1.617,3.145,3.229,4.718,4.842c2.384,2.445,4.769,4.893,7.146,7.341
			c0.067,0.068,0.113,0.188,0.114,0.285c0.008,1.032,0.001,2.064,0.009,3.1C75.136,791.662,75.068,791.756,74.861,791.741z"/>
		<path fill="#DC007A" d="M61.965,763.459c1.886,0.074,3.661-1.52,3.689-3.61c0.031-2.226-1.836-3.739-3.663-3.746
			c-1.963-0.008-3.707,1.58-3.721,3.659C58.258,761.966,60.129,763.545,61.965,763.459z"/>
	</g>
</g>
<g>
	<rect x="15.883" y="300.261" fill="#ECECEC" fill-opacity="0" width="65.889" height="63.712"/>
	<path fill="#DC007A" d="M64.078,334.273c-1.484-1.146-3.238-2.134-5.028-2.657c-4.833-1.413-9.743-2.565-14.637-3.771
		c-2.05-0.505-4.089-1.007-5.414-2.819c-0.4-0.546-0.768-1.264-0.791-1.915c-0.131-3.736,2.32-6.129,5.417-6.979
		c3.001-0.824,6.145-0.616,9.229-0.21c1.767,0.233,3.25,1.137,4.012,2.718c0.608,1.259,0.831,2.719,1.123,4.11
		c0.188,0.897,0.529,1.435,1.535,1.41c1.484-0.034,2.971-0.037,4.454,0.004c0.735,0.021,1.119-0.258,1.129-0.984
		c0.013-1.017,0.108-2.047-0.024-3.046c-0.468-3.494-1.941-6.386-5.178-8.142c-1.935-1.051-3.926-1.92-6.136-2.205
		c-0.878-0.112-1.473-0.484-1.328-1.554c0.087-0.645,0.043-1.312,0.009-1.965c-0.046-0.896-0.538-1.393-1.446-1.405
		c-1.483-0.021-2.967-0.025-4.45-0.023c-1.116,0.001-1.57,0.434-1.597,1.537c-0.022,0.967-0.008,1.934-0.01,2.898
		c-0.033,0.04-0.07,0.077-0.111,0.11c-0.226,0.07-0.45,0.147-0.678,0.215c-1.892,0.549-3.856,0.924-5.66,1.686
		c-2.825,1.191-5.003,3.209-6.398,5.997c-1.14,2.28-1.253,4.711-1.229,7.203c0.028,2.962,1.387,5.092,3.768,6.652
		c3.242,2.127,6.962,2.951,10.669,3.785c3.457,0.777,6.931,1.481,10.373,2.318c0.866,0.211,1.746,0.671,2.435,1.239
		c1.77,1.46,1.496,3.47,0.951,5.32c-0.743,2.521-2.727,3.929-5.173,4.521c-3.309,0.802-6.678,0.767-10.035,0.203
		c-2.382-0.396-6.032-3.514-5.513-6.661c0.085-0.517-0.087-1.087-0.195-1.62c-0.143-0.696-0.569-1.036-1.32-1.021
		c-1.588,0.03-3.178,0.044-4.765-0.005c-0.831-0.026-1.137,0.438-1.188,1.104c-0.352,4.646,1.167,8.522,4.946,11.331
		c2.313,1.721,4.949,2.75,7.864,2.967c0.837,0.063,1.341,0.453,1.272,1.393c-0.043,0.584-0.022,1.174-0.004,1.761
		c0.031,1.016,0.521,1.568,1.504,1.596c1.483,0.037,2.97,0.036,4.453-0.002c0.97-0.023,1.503-0.604,1.54-1.578
		c0.024-0.619,0.021-1.242,0.001-1.863c-0.021-0.646,0.191-1.022,0.898-1.119c1.184-0.163,2.377-0.326,3.531-0.622
		c2.729-0.698,5.245-1.774,6.971-4.188c1.933-2.7,2.912-5.707,2.972-9.011C66.871,338.367,66.194,335.906,64.078,334.273z"/>
</g>
<g>
	<rect x="15.883" y="665.241" fill="#ECECEC" fill-opacity="0" width="65.889" height="63.712"/>
	<g>
		<path fill="#DC007A" d="M78.823,683.2c0-0.271-0.028-0.548-0.074-0.814c-0.321-1.841-1.984-3.075-3.727-3.071
			c-9.24,0.02-18.48,0.007-27.721,0.014c-0.258,0-0.44-0.074-0.622-0.259c-1.71-1.722-3.429-3.434-5.141-5.151
			c-0.149-0.15-0.299-0.229-0.52-0.229c-6.18,0.006-12.359,0.004-18.539,0.009c-0.252,0-0.51,0.035-0.756,0.097
			c-1.647,0.391-2.893,1.767-2.894,3.791c-0.005,13.015-0.003,26.024,0.001,39.039c0,0.28,0.032,0.566,0.083,0.846
			c0.335,1.837,1.964,3.047,3.746,3.044c8.729-0.021,17.458-0.008,26.188-0.008c8.72,0,17.438,0,26.16-0.003
			c0.181,0,0.361,0.013,0.539-0.016c1.93-0.297,3.28-1.777,3.28-3.875C78.829,705.473,78.827,694.34,78.823,683.2z M75.126,716.427
			c0,0.429,0,0.43-0.432,0.43c-8.624,0-17.249,0-25.874,0c-8.577,0-17.155,0-25.732,0.001c-0.105,0-0.209-0.007-0.313,0
			c-0.178,0.015-0.271-0.052-0.25-0.242c0.006-0.063,0-0.133,0-0.198c0-12.881,0-25.763,0-38.644c0-0.435,0-0.435,0.426-0.435
			c5.441,0,10.882,0.002,16.322-0.006c0.247,0,0.421,0.071,0.598,0.246c1.76,1.725,3.531,3.438,5.29,5.16
			c0.182,0.18,0.364,0.23,0.605,0.23c9.601-0.004,19.202-0.004,28.803-0.003c0.653,0.001,0.556-0.07,0.556,0.56
			C75.127,694.493,75.126,705.461,75.126,716.427z"/>
		<path fill="#DC007A" d="M56.641,701.203c-0.761-0.589-1.659-1.095-2.577-1.36c-2.476-0.727-4.992-1.315-7.499-1.936
			c-1.05-0.259-2.095-0.515-2.774-1.442c-0.205-0.279-0.393-0.647-0.405-0.981c-0.067-1.914,1.188-3.14,2.774-3.575
			c1.538-0.423,3.148-0.314,4.729-0.105c0.905,0.119,1.665,0.582,2.055,1.392c0.313,0.646,0.426,1.396,0.576,2.106
			c0.096,0.461,0.271,0.734,0.787,0.723c0.76-0.018,1.522-0.019,2.282,0.002c0.377,0.012,0.573-0.131,0.579-0.505
			c0.006-0.521,0.055-1.049-0.013-1.562c-0.24-1.789-0.995-3.271-2.653-4.172c-0.991-0.535-2.011-0.98-3.144-1.129
			c-0.45-0.059-0.754-0.248-0.681-0.796c0.044-0.329,0.021-0.672,0.005-1.007c-0.024-0.459-0.276-0.713-0.741-0.72
			c-0.76-0.013-1.52-0.017-2.28-0.015c-0.572,0.002-0.804,0.224-0.818,0.787c-0.012,0.495-0.004,0.99-0.005,1.486
			c-0.018,0.021-0.036,0.039-0.058,0.057c-0.116,0.037-0.229,0.075-0.347,0.109c-0.969,0.281-1.977,0.475-2.9,0.863
			c-1.448,0.609-2.563,1.645-3.277,3.072c-0.584,1.168-0.643,2.412-0.63,3.689c0.014,1.52,0.71,2.608,1.93,3.408
			c1.661,1.09,3.567,1.512,5.466,1.939c1.771,0.396,3.551,0.76,5.314,1.188c0.444,0.107,0.895,0.344,1.248,0.635
			c0.906,0.748,0.767,1.777,0.487,2.729c-0.381,1.292-1.396,2.013-2.65,2.314c-1.695,0.41-3.421,0.394-5.142,0.104
			c-1.22-0.204-3.09-1.8-2.824-3.412c0.043-0.265-0.044-0.558-0.1-0.831c-0.073-0.357-0.292-0.53-0.676-0.523
			c-0.814,0.018-1.628,0.022-2.441-0.002c-0.426-0.014-0.583,0.226-0.607,0.566c-0.181,2.38,0.598,4.366,2.534,5.806
			c1.185,0.882,2.536,1.409,4.029,1.521c0.429,0.03,0.688,0.231,0.652,0.713c-0.022,0.299-0.011,0.603-0.002,0.901
			c0.016,0.521,0.267,0.805,0.771,0.816c0.76,0.021,1.521,0.02,2.282-0.001c0.497-0.013,0.77-0.31,0.789-0.809
			c0.012-0.318,0.011-0.64,0-0.956c-0.011-0.33,0.098-0.523,0.46-0.573c0.606-0.083,1.218-0.167,1.81-0.317
			c1.398-0.356,2.687-0.908,3.571-2.146c0.99-1.384,1.492-2.924,1.522-4.615C58.072,703.301,57.725,702.039,56.641,701.203z"/>
	</g>
</g>
<g>
	<rect x="93.168" y="8.278" fill="#ECECEC" fill-opacity="0" width="65.889" height="63.711"/>
	<path fill="#F5F5F5" d="M106,47.721c-0.187-0.137-0.32-0.242-0.465-0.338c-2.358-1.571-4.717-3.146-7.082-4.71
		c-0.444-0.296-0.808-0.646-0.94-1.181c-0.205-0.804,0.063-1.451,0.692-1.953c1.117-0.891,2.246-1.768,3.369-2.647
		c1.558-1.224,3.112-2.443,4.668-3.666c0.076-0.062,0.144-0.133,0.244-0.229c-0.334-0.285-0.645-0.557-0.961-0.821
		c-2.828-2.375-5.654-4.751-8.486-7.121c-0.467-0.393-0.873-0.813-0.92-1.458c-0.059-0.775,0.265-1.361,0.918-1.771
		c1.763-1.101,3.521-2.2,5.283-3.301c3.748-2.338,7.496-4.677,11.244-7.014c0.869-0.542,1.607-0.501,2.398,0.139
		c3.043,2.458,6.082,4.922,9.125,7.383c0.248,0.2,0.508,0.388,0.739,0.604c0.19,0.18,0.341,0.17,0.536,0.009
		c0.951-0.781,1.91-1.553,2.867-2.326c2.352-1.899,4.698-3.804,7.054-5.697c0.755-0.605,1.486-0.648,2.286-0.151
		c5.512,3.436,11.021,6.873,16.527,10.313c0.902,0.565,1.248,1.477,0.846,2.333c-0.146,0.315-0.404,0.604-0.674,0.835
		c-1.299,1.118-2.619,2.213-3.936,3.315c-1.811,1.52-3.618,3.037-5.43,4.558c-0.058,0.049-0.103,0.11-0.19,0.208
		c0.421,0.337,0.825,0.665,1.235,0.988c2.32,1.83,4.646,3.656,6.967,5.488c1.115,0.883,1.059,2.309-0.129,3.103
		c-2.271,1.521-4.549,3.042-6.832,4.552c-0.279,0.188-0.446,0.365-0.318,0.721c0.038,0.106,0.018,0.238,0.018,0.358
		c0,2.573,0.003,5.146-0.004,7.72c0,0.34-0.014,0.684-0.066,1.018c-0.104,0.604-0.475,1.02-0.998,1.316
		c-2.414,1.379-4.824,2.764-7.235,4.146c-3.688,2.115-7.382,4.224-11.062,6.354c-0.817,0.476-1.562,0.466-2.382-0.003
		c-6.103-3.475-12.209-6.935-18.325-10.38c-0.85-0.478-1.25-1.123-1.237-2.103c0.028-2.111,0.015-4.224,0.006-6.333
		C105.347,49.167,105.277,48.351,106,47.721z M139.38,33.043c-0.147-0.111-0.229-0.184-0.319-0.24
		c-4.228-2.75-8.456-5.498-12.679-8.258c-0.229-0.148-0.387-0.112-0.59,0.021c-4.216,2.749-8.435,5.493-12.649,8.239
		c-0.095,0.063-0.177,0.14-0.3,0.235c0.146,0.101,0.242,0.167,0.343,0.229c4.198,2.632,8.399,5.261,12.594,7.898
		c0.24,0.15,0.412,0.149,0.65-0.001c3.905-2.457,7.817-4.902,11.729-7.354C138.546,33.572,138.933,33.326,139.38,33.043z
		 M129.225,22.027c0.137,0.098,0.221,0.162,0.31,0.221c4.252,2.771,8.508,5.536,12.754,8.314c0.278,0.184,0.455,0.175,0.707-0.039
		c2.627-2.221,5.263-4.43,7.897-6.641c0.082-0.069,0.194-0.105,0.342-0.185c-0.215-0.152-0.299-0.221-0.391-0.275
		c-4.306-2.688-8.609-5.375-12.91-8.066c-0.199-0.125-0.336-0.125-0.521,0.023c-2.404,1.953-4.815,3.897-7.227,5.849
		C129.875,21.482,129.568,21.742,129.225,22.027z M100.986,23.656c0.17,0.121,0.283,0.189,0.383,0.273
		c0.508,0.421,1.013,0.846,1.519,1.271c2.119,1.78,4.241,3.56,6.354,5.349c0.236,0.199,0.398,0.193,0.653,0.026
		c4.082-2.669,8.171-5.325,12.259-7.984c0.263-0.172,0.521-0.349,0.822-0.548c-0.133-0.123-0.224-0.216-0.32-0.296
		c-2.588-2.094-5.181-4.183-7.761-6.284c-0.255-0.208-0.434-0.229-0.715-0.05c-3.739,2.35-7.487,4.684-11.231,7.021
		C102.332,22.815,101.721,23.198,100.986,23.656z M122.871,43.688c-0.123-0.094-0.198-0.167-0.289-0.223
		c-4.254-2.666-8.51-5.328-12.76-8c-0.224-0.141-0.369-0.139-0.578,0.026c-1.92,1.521-3.851,3.031-5.774,4.546
		c-0.353,0.273-0.694,0.556-1.071,0.854c0.146,0.106,0.238,0.184,0.336,0.249c4.07,2.713,8.145,5.422,12.205,8.145
		c0.271,0.181,0.439,0.159,0.688-0.029c1.877-1.451,3.766-2.893,5.646-4.334C121.794,44.521,122.313,44.119,122.871,43.688z
		 M149.746,40.901c-0.109-0.104-0.189-0.19-0.283-0.264c-2.163-1.709-4.329-3.414-6.49-5.127c-0.208-0.165-0.365-0.192-0.604-0.042
		c-4.229,2.66-8.467,5.313-12.7,7.97c-0.104,0.064-0.197,0.148-0.321,0.245c0.137,0.118,0.23,0.208,0.335,0.287
		c2.3,1.768,4.604,3.528,6.896,5.306c0.22,0.169,0.363,0.188,0.601,0.03c4.08-2.729,8.168-5.449,12.252-8.173
		C149.525,41.069,149.617,40.996,149.746,40.901z M127.835,47.207c0,5.688,0,11.313,0,17.001c0.172-0.085,0.289-0.138,0.397-0.199
		c1.204-0.686,2.406-1.368,3.61-2.055c3.581-2.037,7.16-4.076,10.747-6.104c0.276-0.157,0.375-0.33,0.372-0.646
		c-0.017-1.639-0.008-3.274-0.008-4.915c-0.002-0.123-0.017-0.245-0.026-0.422c-0.179,0.107-0.302,0.177-0.417,0.255
		c-1.51,1.006-3.016,2.017-4.522,3.021c-0.912,0.604-1.633,0.561-2.502-0.109c-2.442-1.887-4.896-3.765-7.346-5.645
		C128.062,47.327,127.966,47.284,127.835,47.207z M124.126,47.372c-0.138,0.087-0.229,0.139-0.312,0.199
		c-2.396,1.826-4.787,3.653-7.178,5.483c-0.863,0.661-1.564,0.688-2.474,0.083c-1.582-1.057-3.164-2.11-4.746-3.163
		c-0.11-0.073-0.234-0.125-0.401-0.212c-0.013,0.185-0.023,0.303-0.023,0.421c-0.002,1.682,0.007,3.362-0.008,5.046
		c-0.002,0.294,0.104,0.451,0.357,0.592c4.803,2.688,9.602,5.384,14.399,8.076c0.108,0.063,0.229,0.106,0.383,0.182
		C124.126,58.493,124.126,52.965,124.126,47.372z"/>
</g>
<g>
	<rect x="93.168" y="81.274" fill="#ECECEC" fill-opacity="0" width="65.889" height="63.711"/>
	<g>
		<path fill="#F5F5F5" d="M114.893,99.928c6.553,0,13.104,0,19.66,0c6.583,0,13.166,0,19.747,0c0.906,0,1.785-0.688,1.812-1.834
			c0.021-0.986-0.832-1.806-1.809-1.807c-13.156-0.001-26.313-0.001-39.47,0.004c-0.203,0-0.418,0.041-0.606,0.111
			c-0.833,0.312-1.337,1.188-1.174,2.016C113.231,99.319,113.972,99.928,114.893,99.928z"/>
		<path fill="#F5F5F5" d="M154.186,111.304c-2.412,0-4.824,0-7.238,0c-10.674,0-21.348-0.001-32.021,0.004
			c-0.233,0-0.479,0.033-0.696,0.112c-0.823,0.301-1.323,1.158-1.183,1.982c0.153,0.902,0.916,1.541,1.844,1.541
			c6.543,0,13.086,0,19.63,0c4.915,0,9.83,0,14.745,0c1.688,0,3.376,0.011,5.063-0.004c0.979-0.009,1.813-0.797,1.771-1.888
			C156.061,112.002,155.25,111.304,154.186,111.304z"/>
		<path fill="#F5F5F5" d="M154.246,126.322c-2.114-0.001-4.229,0-6.344,0c-10.992,0-21.984-0.001-32.977,0.005
			c-0.232,0-0.479,0.032-0.697,0.11c-0.835,0.306-1.337,1.184-1.178,2.014c0.173,0.897,0.914,1.512,1.836,1.512
			c6.555,0,13.106,0,19.66,0c4.717,0,9.434,0,14.146,0c1.877,0,3.754,0.006,5.632-0.003c0.894-0.004,1.765-0.694,1.782-1.829
			C156.128,127.112,155.275,126.323,154.246,126.322z"/>
		<path fill="#F5F5F5" d="M101.951,94.434c-0.283-0.044-0.569-0.053-0.855-0.05c-1.12,0.01-2.241-0.003-3.357,0.061
			c-0.836,0.048-1.464,0.709-1.564,1.539c-0.037,0.304-0.056,0.61-0.051,0.917c0.01,1.119,0,2.24,0.063,3.357
			c0.043,0.781,0.738,1.458,1.523,1.51c0.709,0.048,1.424,0.011,2.137,0.011c0,0.02,0,0.036,0,0.055
			c0.585,0,1.171,0.006,1.756-0.001c1.127-0.013,1.947-0.802,1.964-1.922c0.019-1.201,0.017-2.401,0-3.604
			C103.548,95.309,102.921,94.59,101.951,94.434z"/>
		<path fill="#F5F5F5" d="M101.951,109.452c-0.283-0.044-0.572-0.054-0.855-0.051c-1.12,0.011-2.241-0.003-3.357,0.061
			c-0.838,0.048-1.465,0.709-1.564,1.538c-0.037,0.304-0.056,0.61-0.051,0.917c0.01,1.12,0,2.241,0.063,3.357
			c0.043,0.781,0.738,1.458,1.523,1.511c0.719,0.048,1.441,0.01,2.166,0.01c0,0.019,0,0.036,0,0.055
			c0.574,0,1.149,0.005,1.728-0.001c1.127-0.013,1.946-0.8,1.964-1.921c0.02-1.201,0.016-2.401,0-3.604
			C103.548,110.328,102.921,109.604,101.951,109.452z"/>
		<path fill="#F5F5F5" d="M101.607,124.419c-1.16-0.01-2.322-0.013-3.482,0c-1.219,0.014-2.002,0.813-2.01,2.032
			c-0.004,1.131-0.006,2.263,0,3.395c0.008,1.205,0.785,2.001,1.99,2.02c1.172,0.019,2.342,0.013,3.514,0.002
			c1.013-0.012,1.771-0.629,1.885-1.622c0.078-0.686,0.017-1.385,0.017-2.077c0.019,0,0.031,0,0.048,0
			c0-0.596,0.006-1.19-0.002-1.785C103.55,125.243,102.744,124.428,101.607,124.419z"/>
	</g>
</g>
<g>
	<rect x="93.168" y="154.27" fill="#ECECEC" fill-opacity="0" width="65.889" height="63.711"/>
	<path fill="#F5F5F5" d="M126.113,166.463c8.144,0,16.282-0.009,24.424,0.006c2.797,0.005,5.031,2.05,5.461,4.602
		c0.066,0.396,0.107,0.801,0.107,1.2c0.008,9.276,0.006,18.557,0.006,27.832c0,2.686-1.746,4.909-4.354,5.533
		c-0.39,0.093-0.795,0.148-1.195,0.148c-16.301,0.007-32.604,0.015-48.906-0.001c-2.729-0.003-5.047-1.991-5.479-4.794
		c-0.051-0.33-0.063-0.67-0.063-1.005c-0.004-9.249-0.004-18.497-0.002-27.745c0-1.689,0.58-3.143,1.83-4.297
		c0.879-0.813,1.92-1.3,3.116-1.422c0.382-0.039,0.768-0.056,1.148-0.056C110.177,166.463,118.144,166.463,126.113,166.463z
		 M126.099,202.141c8.045,0,16.089,0.001,24.134-0.004c0.267,0,0.541-0.024,0.797-0.095c0.927-0.25,1.433-0.994,1.433-2.107
		c0.005-5.438,0-10.873,0.009-16.312c0-0.275-0.084-0.362-0.363-0.36c-1.674,0.012-3.35,0.006-5.021,0.006
		c-15.64,0-31.273,0-46.912,0c-0.406,0-0.41,0-0.41,0.358c-0.001,5.447-0.003,10.895,0.003,16.341c0,0.421,0.055,0.845,0.288,1.218
		c0.438,0.699,1.094,0.956,1.884,0.956C109.99,202.141,118.044,202.141,126.099,202.141z M126.117,175.868
		c8.631,0,17.265,0,25.895,0c0.451,0,0.451,0,0.451-0.442c0-1.021,0.008-2.04-0.004-3.062c-0.002-0.268-0.021-0.541-0.088-0.797
		c-0.232-0.917-0.998-1.457-2.03-1.457c-16.155,0-32.313,0-48.468,0.003c-0.229,0-0.461,0.032-0.682,0.092
		c-0.883,0.235-1.406,0.95-1.426,1.998c-0.021,1.125-0.002,2.251-0.008,3.377c0,0.211,0.086,0.302,0.293,0.288
		c0.104-0.008,0.212-0.001,0.317-0.001C108.951,175.868,117.535,175.868,126.117,175.868z"/>
</g>
<g>
	<rect x="93.168" y="227.266" fill="#ECECEC" fill-opacity="0" width="65.889" height="63.711"/>
	<g>
		<path fill="#F5F5F5" d="M124.555,237.795c-0.248,0.391-0.466,0.739-0.688,1.085c-0.877,1.359-1.746,2.724-2.633,4.078
			c-0.248,0.377-0.354,0.778-0.293,1.218c0.027,0.187,0.077,0.407,0.196,0.539c0.838,0.929,2.041,1.138,2.797-0.065
			c1.937-3.083,3.919-6.136,5.872-9.208c0.621-0.979,0.451-1.656-0.575-2.191c-2.469-1.289-4.95-2.549-7.428-3.818
			c-0.74-0.379-1.491-0.739-2.22-1.143c-0.873-0.483-1.855-0.021-2.137,0.816c-0.327,0.986-0.129,1.603,0.811,2.076
			c1.668,0.845,3.339,1.69,5.008,2.538c0.109,0.058,0.215,0.123,0.32,0.183c-0.002,0.033-0.006,0.063-0.009,0.098
			c-0.341,0.052-0.681,0.106-1.021,0.148c-4.691,0.579-8.971,2.245-12.794,5.011c-5.524,3.993-9.177,9.302-10.922,15.9
			c-0.452,1.708-0.75,3.444-0.812,5.216c-0.033,1.016-0.103,2.034-0.052,3.046c0.165,3.288,0.829,6.477,2.142,9.503
			c3.318,7.646,8.898,12.905,16.736,15.757c1.895,0.688,3.852,1.127,5.85,1.359c1.145,0.135,2.301,0.227,3.449,0.211
			c5.374-0.071,10.371-1.479,14.922-4.365c4.447-2.821,7.861-6.594,10.229-11.3c1.311-2.606,2.178-5.359,2.609-8.25
			c0.25-1.67,0.393-3.349,0.328-5.033c-0.146-3.75-0.934-7.357-2.49-10.788c-1.568-3.458-3.767-6.46-6.551-9.03
			c-0.695-0.645-1.438-1.236-2.186-1.818c-0.604-0.47-1.284-0.549-1.986-0.203c-0.688,0.34-1.029,0.936-1.048,1.672
			c-0.017,0.647,0.312,1.151,0.813,1.573c0.961,0.813,1.944,1.609,2.823,2.506c3.35,3.416,5.468,7.494,6.393,12.189
			c0.271,1.383,0.396,2.777,0.429,4.191c0.122,5.061-1.202,9.711-4.013,13.9c-3.727,5.552-8.886,9.039-15.429,10.467
			c-2.112,0.461-4.259,0.596-6.403,0.46c-4.947-0.31-9.425-1.958-13.345-5.009c-4.793-3.729-7.823-8.575-9.052-14.535
			c-0.388-1.884-0.557-3.792-0.465-5.71c0.195-4.157,1.334-8.041,3.5-11.607c2.147-3.537,5.006-6.362,8.574-8.46
			c2.655-1.562,5.509-2.586,8.563-3.023c0.614-0.089,1.233-0.142,1.854-0.205C124.316,237.762,124.404,237.784,124.555,237.795z"/>
		<g>
			<circle fill="#F5F5F5" cx="130.257" cy="255.068" r="5.596"/>
			<g>
				<circle fill="#F5F5F5" cx="117.021" cy="263.605" r="5.595"/>
				<circle fill="#F5F5F5" cx="132.542" cy="270.652" r="5.595"/>
			</g>
		</g>
	</g>
</g>
<g>
	<rect x="93.168" y="373.259" fill="#ECECEC" fill-opacity="0" width="65.889" height="63.711"/>
	<g>
		<path fill="#F5F5F5" d="M97.389,392.781c0.118,0.07,0.241,0.138,0.362,0.203c1.791,0.976,3.58,1.947,5.369,2.923
			c7.29,3.972,14.586,7.938,21.868,11.921c0.779,0.426,1.48,0.432,2.259,0.01c6.396-3.462,12.799-6.907,19.198-10.355
			c2.845-1.531,5.689-3.063,8.535-4.593c0.697-0.375,1.146-0.922,1.129-1.73c-0.017-0.81-0.479-1.335-1.188-1.692
			c-2.834-1.431-5.658-2.871-8.487-4.31c-3.581-1.818-7.163-3.641-10.745-5.457c-2.775-1.41-5.553-2.822-8.335-4.225
			c-0.281-0.142-0.603-0.207-0.944-0.321c-0.328,0.112-0.666,0.19-0.971,0.344c-2.868,1.434-5.729,2.88-8.593,4.318
			c-5.288,2.655-10.576,5.312-15.864,7.968c-1.181,0.593-2.372,1.163-3.536,1.785C96.106,390.28,96.089,392.003,97.389,392.781z
			 M102.625,391.018c7.582-3.809,15.166-7.614,22.748-11.422c0.041-0.021,0.09-0.034,0.123-0.063
			c0.617-0.515,1.187-0.364,1.856-0.017c3.44,1.791,6.907,3.528,10.364,5.286c4.076,2.069,8.151,4.142,12.229,6.212
			c0.104,0.053,0.197,0.112,0.354,0.203c-0.136,0.094-0.226,0.172-0.325,0.229c-5.481,2.955-10.966,5.909-16.447,8.862
			c-2.345,1.266-4.689,2.521-7.027,3.794c-0.262,0.143-0.461,0.155-0.731,0.008c-4.56-2.494-9.125-4.979-13.69-7.468
			c-3.172-1.729-6.344-3.453-9.517-5.183c-0.097-0.053-0.187-0.117-0.349-0.222C102.406,391.138,102.514,391.075,102.625,391.018z"
			/>
		<path fill="#F5F5F5" d="M97.162,406.635c3.813,2.073,7.625,4.151,11.438,6.229c5.351,2.912,10.701,5.815,16.041,8.744
			c0.79,0.435,1.501,0.448,2.291,0.021c5.478-2.968,10.963-5.918,16.444-8.872c3.75-2.021,7.5-4.045,11.254-6.062
			c0.709-0.38,1.16-0.907,1.146-1.752c-0.016-0.813-0.463-1.322-1.153-1.674c-1.694-0.854-3.392-1.713-5.08-2.577
			c-0.207-0.105-0.373-0.113-0.58,0.003c-0.553,0.314-1.116,0.608-1.678,0.913c-0.627,0.339-1.252,0.68-1.918,1.039
			c1.563,0.797,3.073,1.565,4.661,2.375c-0.198,0.119-0.296,0.182-0.396,0.232c-4.506,2.43-9.01,4.856-13.517,7.284
			c-3.319,1.791-6.646,3.577-9.965,5.375c-0.256,0.139-0.455,0.142-0.701-0.009c-0.416-0.25-0.851-0.473-1.276-0.703
			c-7.301-3.979-14.603-7.952-21.899-11.93c-0.104-0.06-0.207-0.128-0.394-0.243c1.683-0.848,3.287-1.655,4.953-2.494
			c-0.146-0.088-0.226-0.14-0.306-0.184c-1.086-0.593-2.18-1.179-3.26-1.782c-0.221-0.124-0.39-0.118-0.607-0.009
			c-1.807,0.918-3.614,1.831-5.432,2.732c-0.685,0.341-1.092,0.874-1.117,1.629C96.089,405.7,96.479,406.264,97.162,406.635z"/>
		<path fill="#F5F5F5" d="M154.742,416.486c-1.637-0.816-3.276-1.626-4.928-2.419c-0.146-0.069-0.393-0.062-0.539,0.017
			c-0.916,0.472-1.818,0.971-2.727,1.46c-0.275,0.148-0.551,0.304-0.881,0.483c1.475,0.724,2.877,1.41,4.355,2.14
			c-0.224,0.133-0.349,0.211-0.479,0.279c-5.098,2.747-10.192,5.491-15.291,8.237c-2.723,1.467-5.443,2.93-8.163,4.398
			c-0.209,0.114-0.371,0.118-0.575,0c-0.438-0.256-0.895-0.49-1.341-0.733c-7.188-3.914-14.382-7.828-21.569-11.741
			c-0.219-0.119-0.431-0.249-0.737-0.428c1.577-0.719,3.063-1.395,4.604-2.094c-0.074-0.047-0.101-0.066-0.132-0.083
			c-1.188-0.65-2.375-1.307-3.569-1.942c-0.099-0.054-0.272-0.03-0.382,0.021c-1.729,0.786-3.452,1.582-5.176,2.376
			c-0.688,0.313-1.069,0.864-1.102,1.603c-0.029,0.758,0.336,1.332,1.007,1.695c4.077,2.224,8.153,4.442,12.231,6.665
			c5.084,2.771,10.174,5.528,15.248,8.316c0.841,0.461,1.583,0.443,2.419-0.009c7.545-4.086,15.104-8.149,22.653-12.222
			c1.712-0.924,3.428-1.842,5.135-2.771c0.668-0.364,1.006-0.941,0.967-1.715C155.736,417.305,155.367,416.799,154.742,416.486z"/>
	</g>
</g>
<g>
	<rect x="93.168" y="446.254" fill="#ECECEC" fill-opacity="0" width="65.889" height="63.712"/>
	<g>
		<path fill="#F5F5F5" d="M156.107,468.375c0-0.522-0.016-1.05-0.061-1.569c-0.117-1.322-0.775-2.326-1.865-3.063
			c-0.76-0.512-1.623-0.676-2.516-0.682c-2.136-0.015-4.27-0.004-6.4-0.004c-0.129,0-0.258,0-0.418,0c0-0.209,0-0.363,0-0.519
			c0-4.638,0-9.272,0-13.908c0-0.459,0-0.459-0.459-0.459c-12.188,0-24.377,0-36.564,0c-0.451,0-0.451,0-0.451,0.468
			c0,4.635,0,9.271,0,13.907c0,0.153,0,0.308,0,0.511c-0.191,0-0.326,0-0.457,0c-2.109,0-4.224-0.006-6.334,0.004
			c-0.364,0.002-0.736,0.028-1.095,0.106c-2.054,0.446-3.375,2.103-3.375,4.202c0,8.257-0.001,16.513,0.002,24.77
			c0,0.321,0.022,0.646,0.058,0.965c0.24,2.135,1.969,3.676,4.111,3.676c2.213,0.002,4.424,0,6.637,0.002
			c0.453,0,0.453,0,0.453,0.459c0,3.451,0,6.902,0,10.355c0,0.444,0,0.444,0.438,0.444c12.199,0,24.399,0,36.599,0
			c0.438,0,0.438,0,0.438-0.444c0-3.463,0.004-6.927-0.009-10.392c-0.002-0.337,0.087-0.437,0.429-0.435
			c2.257,0.016,4.515,0.019,6.771-0.002c0.404-0.004,0.828-0.07,1.213-0.201c1.727-0.584,2.854-2.063,2.855-4.1
			C156.115,484.439,156.111,476.406,156.107,468.375z M111.063,462.632c0-3.484,0-6.97,0-10.453c0-0.441,0-0.441,0.438-0.441
			c9.737-0.002,19.479-0.002,29.219,0c0.438,0,0.438,0,0.438,0.439c0,3.482,0,6.969,0,10.454c0,0.121,0,0.242,0,0.396
			c-10.029,0-20.039,0-30.097,0C111.063,462.875,111.063,462.754,111.063,462.632z M141.157,503.982
			c0,0.434-0.001,0.438-0.446,0.438c-9.729,0-19.461,0-29.191,0c-0.455,0-0.457-0.004-0.457-0.457c0-6.625,0-13.25,0-19.875
			c0-0.443,0-0.443,0.464-0.443c4.86,0,9.722,0,14.579,0c4.871,0,9.742,0,14.612,0c0.438,0,0.438,0.002,0.438,0.434
			C141.157,490.711,141.157,497.347,141.157,503.982z M152.419,492.437c0,0.611-0.104,0.719-0.722,0.719c-2.134,0-4.27,0-6.401,0
			c-0.448,0-0.448-0.002-0.448-0.465c0-4.076,0-8.154,0-12.23c0-0.447,0-0.447-0.438-0.447c-12.199,0-24.398,0-36.6,0
			c-0.438,0-0.438,0-0.438,0.447c0,4.076,0,8.152,0,12.23c0,0.463,0,0.465-0.451,0.465c-2.146,0-4.289,0-6.436,0
			c-0.568,0-0.688-0.119-0.688-0.684c0-8.357,0-16.715,0-25.07c0-0.559,0.1-0.652,0.671-0.652c8.547,0,17.094,0,25.641,0
			c8.513,0,17.025,0,25.539,0c0.726,0,0.771,0.049,0.771,0.785C152.419,475.836,152.419,484.136,152.419,492.437z"/>
		<path fill="#F5F5F5" d="M144.917,470.634c-0.657-0.007-1.315-0.009-1.977,0c-0.957,0.012-1.802,0.881-1.782,1.823
			c0.021,0.972,0.845,1.793,1.806,1.802c0.324,0.002,0.646,0,0.972,0s0.646,0.002,0.971,0c0.98-0.007,1.832-0.863,1.814-1.822
			C146.705,471.466,145.885,470.642,144.917,470.634z"/>
	</g>
</g>
<g>
	<rect x="93.168" y="519.25" fill="#ECECEC" fill-opacity="0" width="65.889" height="63.711"/>
	<g>
		<path fill="#F5F5F5" d="M141.123,577.939c0-0.503,0-0.503-0.521-0.503c-8.854,0-17.713,0-26.567,0
			c-4.603,0-9.203-0.004-13.808,0.008c-0.33,0.001-0.438-0.08-0.431-0.423c0.021-1.123,0.028-2.248,0.002-3.372
			c-0.022-1.056,0.455-1.764,1.382-2.201c2.784-1.315,5.569-2.631,8.354-3.946c2.816-1.329,5.642-2.646,8.443-4
			c1.328-0.644,2.002-1.782,2.053-3.23c0.037-1.129-0.438-2.08-1.278-2.854c-0.588-0.539-1.179-1.09-1.687-1.699
			c-1.201-1.451-2.031-3.119-2.688-4.875c-0.869-2.313-1.435-4.695-1.476-7.168c-0.051-3.104-0.021-6.213-0.002-9.319
			c0.002-0.467,0.09-0.946,0.224-1.396c0.356-1.203,1.09-2.193,1.933-3.102c1.479-1.593,3.237-2.799,5.205-3.699
			c2.448-1.123,5-1.681,7.694-1.23c3.868,0.644,7.112,2.438,9.672,5.415c1.039,1.209,1.722,2.578,1.694,4.253
			c-0.043,2.854-0.002,5.703-0.02,8.556c-0.004,0.843-0.05,1.688-0.138,2.525c-0.252,2.388-0.873,4.68-1.866,6.866
			c-0.849,1.865-1.964,3.539-3.58,4.845c-0.867,0.699-1.345,1.634-1.355,2.745c-0.02,1.566,0.697,2.742,2.104,3.438
			c1.742,0.861,3.51,1.68,5.268,2.514c0.102,0.05,0.207,0.08,0.35,0.134c0.301-1.224,0.592-2.406,0.887-3.603
			c-1.674-0.785-3.309-1.556-5.004-2.352c0.149-0.137,0.238-0.208,0.315-0.288c0.604-0.604,1.252-1.178,1.802-1.83
			c1.573-1.865,2.641-4.021,3.422-6.317c0.852-2.513,1.401-5.084,1.426-7.742c0.029-3.385,0.01-6.771,0.002-10.154
			c0-0.346-0.039-0.692-0.104-1.031c-0.4-2.053-1.453-3.765-2.814-5.305c-1.633-1.848-3.584-3.279-5.771-4.396
			c-2.168-1.104-4.455-1.828-6.883-2.016c-2.047-0.155-4.068,0.063-6.035,0.682c-3.961,1.241-7.328,3.373-9.883,6.688
			c-1.463,1.897-2.258,4.021-2.195,6.47c0.072,2.814,0.006,5.635,0.023,8.45c0.004,0.796,0.045,1.599,0.146,2.388
			c0.282,2.244,0.825,4.432,1.65,6.539c1.139,2.907,2.686,5.543,5.098,7.598c0.066,0.059,0.123,0.133,0.213,0.23
			c-0.131,0.075-0.234,0.146-0.345,0.196c-1.36,0.644-2.726,1.28-4.086,1.925c-4.063,1.917-8.128,3.831-12.188,5.755
			c-0.938,0.442-1.808,0.992-2.564,1.706c-0.641,0.602-1.077,1.3-1.077,2.211c-0.002,1.717-0.015,3.434,0.004,5.146
			c0.013,1.104,0.336,2.1,1.16,2.883c0.801,0.76,1.762,1.031,2.854,1.029c13.493-0.013,26.985-0.008,40.479-0.008
			c0.061,0,0.117-0.007,0.175,0.001c0.267,0.029,0.338-0.097,0.334-0.347C141.117,579.793,141.123,578.865,141.123,577.939z"/>
		<path fill="#F5F5F5" d="M156.1,571.633c-0.131-1.047-0.867-1.703-1.931-1.706c-1.703-0.005-3.407-0.001-5.11-0.001
			c-0.133,0-0.267,0-0.424,0c0-0.2,0-0.338,0-0.478c0-1.528,0.004-3.061-0.005-4.59c0-0.313-0.022-0.624-0.065-0.934
			c-0.133-0.943-1.142-1.656-2.062-1.468c-0.97,0.201-1.556,0.92-1.558,1.93c-0.004,1.704-0.002,3.408-0.002,5.109
			c0,0.136,0,0.269,0,0.427c-0.198,0-0.338,0-0.477,0c-1.703,0-3.408-0.007-5.109,0.002c-1.031,0.005-1.791,0.706-1.92,1.739
			c-0.092,0.734,0.529,1.611,1.328,1.826c0.297,0.081,0.615,0.112,0.926,0.114c1.601,0.011,3.197,0.005,4.799,0.005
			c0.136,0,0.271,0,0.453,0c0,0.204,0,0.344,0,0.479c0,1.646-0.004,3.292,0.004,4.938c0.002,0.241,0.029,0.486,0.088,0.72
			c0.169,0.674,0.8,1.235,1.436,1.309c0.854,0.097,1.563-0.215,1.893-0.923c0.164-0.354,0.255-0.774,0.263-1.169
			c0.026-1.635,0.013-3.27,0.013-4.9c0-0.137,0-0.271,0-0.451c0.178,0,0.313,0,0.448,0c1.401,0,2.804,0.006,4.205-0.003
			c0.429-0.002,0.854-0.024,1.281-0.063C155.473,573.461,156.21,572.526,156.1,571.633z"/>
	</g>
</g>
<g>
	<rect x="93.168" y="592.246" fill="#ECECEC" fill-opacity="0" width="65.889" height="63.711"/>
	<g>
		<path fill="#F5F5F5" d="M142.107,644.607c-0.711-0.689-1.589-1.104-2.441-1.57c-3.744-2.055-7.478-4.131-11.213-6.197
			c-0.156-0.09-0.308-0.191-0.5-0.313c0.125-0.117,0.222-0.196,0.306-0.287c0.56-0.586,1.178-1.127,1.657-1.77
			c2.396-3.194,3.373-6.901,3.566-10.804c0.148-3.053,0.035-6.114,0.036-9.175c0-0.229,0.009-0.466-0.024-0.691
			c-0.252-1.761-1.056-3.27-2.174-4.618c-1.633-1.977-3.66-3.428-6.004-4.438c-2.574-1.105-5.25-1.55-8.025-1.021
			c-3.678,0.7-6.793,2.438-9.299,5.229c-1.67,1.859-2.594,4.006-2.508,6.564c0.066,2.048,0,4.102,0.02,6.15
			c0.009,0.816,0.063,1.64,0.13,2.455c0.151,1.828,0.582,3.603,1.19,5.326c0.781,2.217,1.855,4.266,3.492,5.982
			c0.34,0.359,0.65,0.746,0.993,1.141c-0.017,0.014-0.101,0.071-0.19,0.12c-3.306,1.794-6.613,3.581-9.916,5.384
			c-1.209,0.659-2.42,1.315-3.586,2.045c-0.789,0.492-1.467,1.176-1.483,2.184c-0.031,1.677-0.033,3.355,0.062,5.031
			c0.088,1.56,1.459,2.764,3.002,2.765c13.563,0.003,27.129,0.002,40.694-0.001c0.681,0,1.292-0.229,1.831-0.646
			c0.859-0.666,1.229-1.574,1.238-2.636c0.02-1.399-0.004-2.803,0.009-4.204C142.974,645.814,142.679,645.162,142.107,644.607z
			 M138.83,650.489c-4.608-0.01-9.221-0.007-13.832-0.007c-1.816,0-3.637,0-5.455,0c-6.404,0-12.813,0.001-19.219,0
			c-0.522,0-0.522,0-0.522-0.525c0-0.867,0.01-1.735-0.007-2.604c-0.006-0.271,0.087-0.427,0.316-0.551
			c1.568-0.849,3.133-1.699,4.699-2.552c2.768-1.502,5.538-2.994,8.301-4.506c1.252-0.685,1.916-1.783,1.955-3.187
			c0.03-1.091-0.373-2.087-1.234-2.8c-1.776-1.472-2.836-3.396-3.584-5.521c-0.713-2.029-1.104-4.118-1.069-6.286
			c0.037-2.374,0.024-4.75-0.002-7.124c-0.011-0.822,0.22-1.55,0.644-2.229c1.08-1.74,2.623-2.979,4.387-3.959
			c1.39-0.774,2.873-1.297,4.459-1.438c1.702-0.147,3.363,0.089,4.957,0.745c2.076,0.855,3.852,2.112,5.207,3.92
			c0.701,0.939,1.104,1.964,1.084,3.184c-0.051,2.522,0.006,5.052-0.021,7.574c-0.026,2.7-0.545,5.308-1.696,7.763
			c-0.58,1.234-1.366,2.325-2.433,3.214c-2.151,1.791-1.862,4.853,0.578,6.212c3.896,2.167,7.793,4.323,11.69,6.479
			c0.322,0.183,0.655,0.344,0.986,0.508c0.201,0.101,0.271,0.246,0.266,0.475c-0.012,0.927-0.021,1.854,0.005,2.78
			C139.298,650.422,139.164,650.49,138.83,650.489z"/>
		<path fill="#F5F5F5" d="M156.109,637.41c0.027-1.045-0.381-1.861-1.209-2.437c-0.748-0.521-1.551-0.964-2.35-1.402
			c-3.743-2.055-7.494-4.096-11.242-6.143c-0.125-0.068-0.24-0.154-0.377-0.243c0.068-0.081,0.1-0.13,0.143-0.165
			c1.676-1.392,2.857-3.144,3.728-5.12c1.127-2.566,1.774-5.257,1.839-8.059c0.062-2.756-0.016-5.518,0.029-8.271
			c0.025-1.648-0.454-3.126-1.338-4.479c-1.732-2.667-4.166-4.502-7.057-5.751c-2.471-1.066-5.047-1.518-7.725-1.069
			c-3.506,0.583-6.52,2.163-9.063,4.637c-0.22,0.215-0.422,0.446-0.69,0.734c0.647,0.04,1.18,0.051,1.705,0.111
			c0.834,0.097,1.67,0.205,2.496,0.353c0.276,0.05,0.474,0.021,0.7-0.141c2.416-1.72,5.108-2.45,8.06-2.146
			c1.533,0.158,2.97,0.682,4.315,1.433c1.519,0.843,2.843,1.91,3.888,3.307c0.703,0.939,1.112,1.961,1.086,3.182
			c-0.056,2.198-0.029,4.4-0.013,6.604c0.015,1.393-0.069,2.771-0.351,4.136c-0.631,3.086-1.69,5.937-4.229,8.028
			c-0.861,0.711-1.231,1.726-1.179,2.818c0.067,1.373,0.736,2.443,1.961,3.115c3.005,1.647,6.013,3.285,9.021,4.924
			c1.198,0.65,2.399,1.304,3.612,1.927c0.396,0.204,0.574,0.44,0.551,0.909c-0.043,0.811-0.012,1.621-0.014,2.434
			c0,0.461,0,0.463-0.457,0.464c-2.166,0.001-4.332,0-6.498,0c-0.125,0-0.248,0-0.397,0c0.213,0.257,0.416,0.476,0.591,0.714
			c0.559,0.766,0.801,1.661,1.037,2.557c0.072,0.275,0.195,0.364,0.479,0.362c1.912-0.012,3.823,0.009,5.733-0.018
			c0.418-0.007,0.858-0.097,1.244-0.259c1.334-0.562,1.928-1.641,1.953-3.043C156.119,640.074,156.074,638.741,156.109,637.41z"/>
	</g>
</g>
<g>
	<rect x="93.168" y="738.238" fill="#ECECEC" fill-opacity="0" width="65.889" height="63.711"/>
	<g>
		<path fill="#F5F5F5" d="M156.109,748.752c0-0.285-0.021-0.574-0.068-0.856c-0.295-1.767-1.873-3.093-3.664-3.093
			c-8.758-0.002-17.516-0.002-26.271-0.002c-8.748,0-17.494,0-26.241,0.008c-0.353,0-0.714,0.057-1.052,0.152
			c-1.543,0.447-2.698,1.805-2.698,3.774c0,14.029-0.001,28.062,0.002,42.089c0,0.396,0.024,0.792,0.052,1.188
			c0.111,1.784,1.68,3.373,3.666,3.373c17.516,0.004,35.029,0.003,52.545-0.001c0.266,0,0.535-0.034,0.793-0.094
			c1.612-0.356,2.941-1.729,2.941-3.854C156.111,777.209,156.113,762.979,156.109,748.752z M100.25,748.445
			c9.175,0,18.35,0,27.521,0c8.014,0,16.025,0,24.039,0c0.068,0,0.139-0.001,0.207,0c0.396,0.002,0.396,0.003,0.396,0.395
			c0,11.229,0,22.457,0,33.688c0,0.105,0,0.213,0,0.318c-0.037,0.02-0.074,0.037-0.111,0.057c-0.144-0.163-0.275-0.333-0.426-0.486
			c-2.465-2.521-4.933-5.037-7.396-7.557c-1.014-1.036-2.018-2.081-3.035-3.111c-0.84-0.854-1.795-0.9-2.697-0.121
			c-2.229,1.932-4.448,3.867-6.666,5.813c-0.191,0.168-0.307,0.177-0.486-0.007c-1.012-1.015-2.033-2.013-3.051-3.019
			c-3.541-3.508-7.079-7.017-10.62-10.521c-0.602-0.596-1.2-1.188-1.802-1.779c-0.703-0.691-1.838-0.709-2.554-0.016
			c-1.726,1.671-3.442,3.351-5.164,5.023c-2.782,2.707-5.563,5.413-8.347,8.119c-0.055,0.055-0.119,0.096-0.229,0.182
			c-0.012-0.15-0.021-0.254-0.021-0.354c-0.002-8.747-0.002-17.494-0.002-26.242C99.809,748.446,99.809,748.445,100.25,748.445z
			 M152.146,791.741c-0.107-0.007-0.217,0-0.326,0c-8.57,0-17.141,0-25.709,0c-8.579,0-17.158,0-25.738,0
			c-0.088,0-0.179-0.007-0.268,0.001c-0.234,0.021-0.303-0.083-0.303-0.313c0.006-3.534,0.002-7.068,0.015-10.604
			c0-0.149,0.104-0.338,0.22-0.448c1.83-1.791,3.67-3.571,5.508-5.354c1.703-1.651,3.408-3.304,5.11-4.954
			c1.341-1.3,2.681-2.599,4.017-3.9c0.16-0.156,0.287-0.198,0.436-0.002c0.021,0.03,0.059,0.058,0.084,0.086
			c5.065,5.06,10.145,10.104,15.188,15.188c0.907,0.916,2.041,0.633,2.686,0.053c2.082-1.871,4.154-3.753,6.229-5.634
			c0.596-0.538,0.582-0.537,1.145,0.041c1.569,1.617,3.146,3.229,4.719,4.842c2.385,2.445,4.77,4.893,7.146,7.341
			c0.065,0.068,0.113,0.188,0.113,0.285c0.008,1.032,0.002,2.064,0.01,3.1C152.419,791.662,152.354,791.756,152.146,791.741z"/>
		<path fill="#F5F5F5" d="M139.25,763.459c1.889,0.074,3.662-1.52,3.689-3.61c0.031-2.226-1.836-3.739-3.662-3.746
			c-1.963-0.008-3.707,1.58-3.721,3.659C135.542,761.966,137.414,763.545,139.25,763.459z"/>
	</g>
</g>
<g>
	<rect x="93.168" y="300.261" fill="#ECECEC" fill-opacity="0" width="65.889" height="63.712"/>
	<path fill="#F5F5F5" d="M141.363,334.273c-1.484-1.146-3.238-2.134-5.029-2.657c-4.832-1.413-9.741-2.565-14.637-3.771
		c-2.049-0.505-4.088-1.007-5.414-2.819c-0.399-0.546-0.768-1.264-0.791-1.915c-0.131-3.736,2.32-6.129,5.418-6.979
		c3-0.824,6.146-0.616,9.229-0.21c1.766,0.233,3.25,1.137,4.012,2.718c0.606,1.259,0.83,2.719,1.123,4.11
		c0.188,0.897,0.529,1.435,1.535,1.41c1.483-0.034,2.971-0.037,4.453,0.004c0.735,0.021,1.118-0.258,1.129-0.984
		c0.014-1.017,0.108-2.047-0.022-3.046c-0.47-3.494-1.94-6.386-5.179-8.142c-1.937-1.051-3.926-1.92-6.137-2.205
		c-0.877-0.112-1.474-0.484-1.328-1.554c0.088-0.645,0.043-1.312,0.01-1.965c-0.047-0.896-0.539-1.393-1.446-1.405
		c-1.481-0.021-2.968-0.025-4.448-0.023c-1.117,0.001-1.57,0.434-1.599,1.537c-0.021,0.967-0.009,1.934-0.011,2.898
		c-0.033,0.04-0.069,0.077-0.11,0.11c-0.226,0.07-0.449,0.147-0.679,0.215c-1.892,0.549-3.856,0.924-5.66,1.686
		c-2.823,1.191-5.002,3.209-6.396,5.997c-1.14,2.28-1.252,4.711-1.229,7.203c0.027,2.962,1.389,5.092,3.77,6.652
		c3.242,2.127,6.961,2.951,10.668,3.785c3.457,0.777,6.932,1.481,10.373,2.318c0.867,0.211,1.746,0.671,2.436,1.239
		c1.768,1.46,1.496,3.47,0.951,5.32c-0.744,2.521-2.727,3.929-5.174,4.521c-3.31,0.802-6.678,0.767-10.035,0.203
		c-2.381-0.396-6.031-3.514-5.512-6.661c0.084-0.517-0.088-1.087-0.195-1.62c-0.143-0.696-0.57-1.036-1.32-1.021
		c-1.588,0.03-3.178,0.044-4.766-0.005c-0.83-0.026-1.137,0.438-1.188,1.104c-0.354,4.646,1.168,8.522,4.945,11.331
		c2.313,1.721,4.949,2.75,7.863,2.967c0.838,0.063,1.342,0.453,1.271,1.393c-0.043,0.584-0.021,1.174-0.004,1.761
		c0.031,1.016,0.521,1.568,1.504,1.596c1.482,0.037,2.969,0.036,4.453-0.002c0.969-0.023,1.502-0.604,1.539-1.578
		c0.025-0.619,0.021-1.242,0.002-1.863c-0.021-0.646,0.191-1.022,0.898-1.119c1.184-0.163,2.377-0.326,3.531-0.622
		c2.729-0.698,5.243-1.774,6.971-4.188c1.932-2.7,2.912-5.707,2.971-9.011C144.156,338.367,143.479,335.906,141.363,334.273z"/>
</g>
<g>
	<rect x="93.168" y="665.241" fill="#ECECEC" fill-opacity="0" width="65.889" height="63.712"/>
	<g>
		<path fill="#F5F5F5" d="M156.107,683.2c0-0.271-0.027-0.548-0.074-0.814c-0.32-1.841-1.983-3.075-3.727-3.071
			c-9.24,0.02-18.479,0.007-27.721,0.014c-0.259,0-0.439-0.074-0.623-0.259c-1.709-1.722-3.429-3.434-5.143-5.151
			c-0.146-0.15-0.299-0.229-0.521-0.229c-6.181,0.006-12.358,0.004-18.538,0.009c-0.253,0-0.512,0.035-0.758,0.097
			c-1.646,0.391-2.893,1.767-2.895,3.791c-0.004,13.015-0.002,26.024,0.002,39.039c0,0.28,0.031,0.566,0.082,0.846
			c0.336,1.837,1.965,3.047,3.746,3.044c8.729-0.021,17.459-0.008,26.188-0.008c8.723,0,17.439,0,26.16-0.003
			c0.182,0,0.361,0.013,0.539-0.016c1.93-0.297,3.279-1.777,3.279-3.875C156.113,705.473,156.111,694.34,156.107,683.2z
			 M152.41,716.427c0,0.429,0,0.43-0.432,0.43c-8.623,0-17.248,0-25.873,0c-8.578,0-17.154,0-25.732,0.001
			c-0.104,0-0.209-0.007-0.313,0c-0.18,0.015-0.271-0.052-0.25-0.242c0.006-0.063,0-0.133,0-0.198c0-12.881,0-25.763,0-38.644
			c0-0.435,0-0.435,0.426-0.435c5.439,0,10.883,0.002,16.322-0.006c0.246,0,0.42,0.071,0.598,0.246
			c1.76,1.725,3.531,3.438,5.289,5.16c0.182,0.18,0.365,0.23,0.605,0.23c9.602-0.004,19.201-0.004,28.803-0.003
			c0.654,0.001,0.557-0.07,0.557,0.56C152.412,694.493,152.41,705.461,152.41,716.427z"/>
		<path fill="#F5F5F5" d="M133.925,701.203c-0.76-0.589-1.658-1.095-2.575-1.36c-2.478-0.727-4.992-1.315-7.5-1.936
			c-1.05-0.259-2.095-0.515-2.772-1.442c-0.205-0.279-0.394-0.647-0.405-0.981c-0.066-1.914,1.188-3.14,2.774-3.575
			c1.538-0.423,3.148-0.314,4.729-0.105c0.905,0.119,1.666,0.582,2.057,1.392c0.313,0.646,0.426,1.396,0.575,2.106
			c0.097,0.461,0.271,0.734,0.786,0.723c0.761-0.018,1.521-0.019,2.28,0.002c0.377,0.012,0.573-0.131,0.58-0.505
			c0.006-0.521,0.056-1.049-0.015-1.562c-0.239-1.789-0.994-3.271-2.651-4.172c-0.991-0.535-2.013-0.98-3.145-1.129
			c-0.45-0.059-0.755-0.248-0.682-0.796c0.045-0.329,0.021-0.672,0.006-1.007c-0.024-0.459-0.276-0.713-0.741-0.72
			c-0.761-0.013-1.521-0.017-2.28-0.015c-0.57,0.002-0.804,0.224-0.815,0.787c-0.013,0.495-0.005,0.99-0.007,1.486
			c-0.018,0.021-0.034,0.039-0.058,0.057c-0.114,0.037-0.229,0.075-0.348,0.109c-0.97,0.281-1.979,0.475-2.899,0.863
			c-1.447,0.609-2.563,1.645-3.277,3.072c-0.584,1.168-0.644,2.412-0.631,3.689c0.017,1.52,0.711,2.608,1.933,3.408
			c1.659,1.09,3.565,1.512,5.466,1.939c1.771,0.396,3.551,0.76,5.313,1.188c0.444,0.107,0.896,0.344,1.248,0.635
			c0.905,0.748,0.769,1.777,0.487,2.729c-0.381,1.292-1.397,2.013-2.649,2.314c-1.694,0.41-3.422,0.394-5.144,0.104
			c-1.22-0.204-3.09-1.8-2.823-3.412c0.043-0.265-0.045-0.558-0.101-0.831c-0.073-0.357-0.292-0.53-0.677-0.523
			c-0.813,0.018-1.629,0.022-2.44-0.002c-0.426-0.014-0.583,0.226-0.608,0.566c-0.181,2.38,0.599,4.366,2.535,5.806
			c1.185,0.882,2.534,1.409,4.028,1.521c0.428,0.03,0.687,0.231,0.651,0.713c-0.022,0.299-0.013,0.603-0.002,0.901
			c0.017,0.521,0.267,0.805,0.771,0.816c0.761,0.021,1.521,0.02,2.281-0.001c0.497-0.013,0.771-0.31,0.789-0.809
			c0.013-0.318,0.012-0.64,0.001-0.956c-0.012-0.33,0.099-0.523,0.46-0.573c0.606-0.083,1.219-0.167,1.81-0.317
			c1.398-0.356,2.688-0.908,3.571-2.146c0.99-1.384,1.492-2.924,1.522-4.615C135.356,703.301,135.01,702.039,133.925,701.203z"/>
	</g>
</g>
<g>
	<rect x="49.621" y="851.621" fill="#D6D6D6" fill-opacity="0" width="30" height="29.998"/>
	<path fill="#F5F5F5" d="M63.306,868.656c1.946-2.754,6.034-8.184,7.013-9.404c0.896-0.82,1.861-0.86,2.6-0.149
		c0.716,0.688,0.713,1.728-0.057,2.604c-3.57,5.631-4.275,7.479-7.518,11.968c-0.978,1.352-2.953,1.243-4.021-0.064
		c-1.731-2.125-3.4-4.301-5.054-6.485c-0.745-0.985-0.58-2.253,0.283-3.011c0.924-0.812,2.17-0.774,3.083,0.158
		C60.941,865.604,61.955,867.229,63.306,868.656z"/>
</g>
<g>
	<rect x="14.879" y="851.621" fill="#D6D6D6" fill-opacity="0" width="30" height="29.998"/>
	<path fill="#DF007C" d="M28.565,868.656c1.947-2.754,6.035-8.184,7.014-9.404c0.896-0.82,1.861-0.86,2.605-0.149
		c0.715,0.688,0.711,1.728-0.064,2.604c-3.563,5.631-4.27,7.479-7.516,11.968c-0.979,1.352-2.953,1.243-4.021-0.064
		c-1.732-2.125-3.402-4.301-5.061-6.485c-0.746-0.985-0.58-2.253,0.283-3.011c0.924-0.812,2.17-0.774,3.082,0.158
		C26.2,865.605,27.213,867.23,28.565,868.656z"/>
</g>
<path fill="#E3228D" d="M33.072,828.558l8.084-8.083c0.619-0.619,0.619-1.625,0-2.244c-0.619-0.619-1.625-0.619-2.246,0
	l-8.082,8.082l-8.083-8.082c-0.619-0.619-1.625-0.619-2.245,0c-0.619,0.619-0.619,1.625,0,2.244l8.083,8.083l-8.041,8.041
	c-0.62,0.619-0.62,1.625,0,2.244c0.62,0.619,1.625,0.619,2.245,0l8.041-8.041l8.041,8.041c0.619,0.619,1.625,0.619,2.244,0
	c0.621-0.619,0.621-1.625,0-2.244L33.072,828.558z"/>
<path fill-rule="evenodd" clip-rule="evenodd" fill="#BA0003" d="M39.292,914.563h4.734v18.939h-4.734V914.563z M39.292,938.237
	h4.734v4.735l-4.734,0.036V938.237z M67.463,944.963l-24.26-43.688c-0.318-0.566-0.91-0.916-1.545-0.916
	c-0.634,0-1.224,0.35-1.541,0.916l-24.26,43.688c-0.318,0.564-0.318,1.265,0,1.829c0.315,0.564,0.907,0.915,1.54,0.915H65.92
	c0.633,0,1.225-0.351,1.543-0.915C67.78,946.227,67.78,945.525,67.463,944.963z M71.487,948.981
	c-1.201,2.14-3.447,3.461-5.865,3.461H17.62c-2.422,0-4.668-1.323-5.859-3.454c-1.163-2.072-1.163-4.65,0.003-6.73l24-43.188
	c1.19-2.123,3.436-3.445,5.855-3.445c2.412,0,4.652,1.316,5.854,3.434l24.004,43.196C72.641,944.334,72.643,946.906,71.487,948.981z
	"/>
<path fill="#4F9937" d="M114.393,931.244c6.897-9.755,21.379-28.989,24.848-33.313c3.173-2.906,6.591-3.047,9.227-0.529
	c2.532,2.439,2.519,6.119-0.225,9.227c-12.623,19.946-15.128,26.494-26.627,42.394c-3.47,4.788-10.461,4.403-14.241-0.229
	c-6.138-7.527-12.053-15.235-17.93-22.974c-2.643-3.49-2.055-7.98,1.003-10.664c3.272-2.875,7.687-2.744,10.918,0.56
	C106.014,920.436,109.602,926.193,114.393,931.244z"/>
</svg>
